<?xml version="1.0" encoding="UTF-8" standalone="no"?>
<!-- Created with Inkscape (http://www.inkscape.org/) -->

<svg
   xmlns:dc="http://purl.org/dc/elements/1.1/"
   xmlns:cc="http://creativecommons.org/ns#"
   xmlns:rdf="http://www.w3.org/1999/02/22-rdf-syntax-ns#"
   xmlns:svg="http://www.w3.org/2000/svg"
   xmlns="http://www.w3.org/2000/svg"
   xmlns:sodipodi="http://sodipodi.sourceforge.net/DTD/sodipodi-0.dtd"
   xmlns:inkscape="http://www.inkscape.org/namespaces/inkscape"
   width="193.2336mm"
   height="176.66289mm"
   viewBox="0 0 193.2336 176.66289"
   version="1.1"
   id="svg8"
   inkscape:version="0.92.4 5da689c313, 2019-01-14"
   sodipodi:docname="pic-cycle.svg">
  <defs
     id="defs2" />
  <sodipodi:namedview
     id="base"
     pagecolor="#ffffff"
     bordercolor="#666666"
     borderopacity="1.0"
     inkscape:pageopacity="0.0"
     inkscape:pageshadow="2"
     inkscape:zoom="0.98994949"
     inkscape:cx="475.50525"
     inkscape:cy="366.50614"
     inkscape:document-units="mm"
     inkscape:current-layer="layer1"
     showgrid="false"
     showguides="true"
     inkscape:window-width="1920"
     inkscape:window-height="1007"
     inkscape:window-x="0"
     inkscape:window-y="36"
     inkscape:window-maximized="1">
    <inkscape:grid
       type="xygrid"
       id="grid815"
       originx="-100.586"
       originy="-205.24556" />
  </sodipodi:namedview>
  <metadata
     id="metadata5">
    <rdf:RDF>
      <cc:Work
         rdf:about="">
        <dc:format>image/svg+xml</dc:format>
        <dc:type
           rdf:resource="http://purl.org/dc/dcmitype/StillImage" />
        <dc:title></dc:title>
      </cc:Work>
    </rdf:RDF>
  </metadata>
  <g
     inkscape:label="Layer 1"
     inkscape:groupmode="layer"
     id="layer1"
     transform="translate(-10.825551,-18.907182)">
    <circle
       style="fill:none;fill-opacity:0.27272728;stroke:#000000;stroke-width:0.26499999;stroke-miterlimit:4;stroke-dasharray:none;stroke-dashoffset:0"
       id="path843"
       cx="107.15625"
       cy="115.76041"
       r="70.114586" />
    <rect
       style="fill:#ffffff;fill-opacity:1;stroke:#000000;stroke-width:0.2290473;stroke-miterlimit:4;stroke-dasharray:none;stroke-dashoffset:0"
       id="rect852"
       width="31.732229"
       height="16.151361"
       x="92.880318"
       y="37.449944" />
    <g
       aria-label="Push"
       style="font-style:normal;font-weight:normal;font-size:10.58333302px;line-height:1.25;font-family:sans-serif;letter-spacing:0px;word-spacing:0px;fill:#000000;fill-opacity:1;stroke:none;stroke-width:0.26458332"
       id="text819">
      <path
         d="m 98.431201,42.393125 v 2.899048 h 1.312581 q 0.728638,0 1.126548,-0.377238 0.39791,-0.377238 0.39791,-1.07487 0,-0.692464 -0.39791,-1.069702 -0.39791,-0.377238 -1.126548,-0.377238 z m -1.043864,-0.857829 h 2.356445 q 1.297078,0 1.958538,0.589112 0.66662,0.583943 0.66662,1.715657 0,1.142049 -0.66662,1.725993 -0.66146,0.583944 -1.958538,0.583944 h -1.312581 v 3.100585 h -1.043864 z"
         style="stroke-width:0.26458332"
         id="path1248" />
      <path
         d="m 103.44898,46.966489 v -3.503662 h 0.95085 v 3.467489 q 0,0.821655 0.32039,1.235066 0.3204,0.408244 0.96118,0.408244 0.76998,0 1.2144,-0.490926 0.44959,-0.490926 0.44959,-1.338419 v -3.281454 h 0.95084 v 5.78776 h -0.95084 v -0.888834 q -0.34624,0.527099 -0.80616,0.785482 -0.45475,0.253214 -1.05936,0.253214 -0.99736,0 -1.51412,-0.620117 -0.51677,-0.620117 -0.51677,-1.813843 z m 2.39262,-3.643188 z"
         style="stroke-width:0.26458332"
         id="path1250" />
      <path
         d="m 113.9548,43.633359 v 0.89917 q -0.40308,-0.206705 -0.83716,-0.310058 -0.43408,-0.103353 -0.89917,-0.103353 -0.70797,0 -1.06453,0.217041 -0.3514,0.217041 -0.3514,0.651123 0,0.330729 0.25321,0.521932 0.25322,0.186035 1.01803,0.356567 l 0.32556,0.07235 q 1.01286,0.217041 1.4366,0.61495 0.42892,0.392741 0.42892,1.100708 0,0.806152 -0.64079,1.276408 -0.63562,0.470255 -1.75183,0.470255 -0.46509,0 -0.97152,-0.09302 -0.50126,-0.08785 -1.05936,-0.268718 v -0.981852 q 0.5271,0.273885 1.03869,0.413411 0.5116,0.134359 1.01286,0.134359 0.67179,0 1.03353,-0.227376 0.36173,-0.232544 0.36173,-0.651123 0,-0.387573 -0.26355,-0.594279 -0.25838,-0.206706 -1.14204,-0.397909 l -0.33073,-0.07751 q -0.88367,-0.186036 -1.27641,-0.568441 -0.39274,-0.387573 -0.39274,-1.059367 0,-0.816488 0.57877,-1.260905 0.57878,-0.444417 1.64331,-0.444417 0.5271,0 0.99219,0.07751 0.46509,0.07751 0.85783,0.232543 z"
         style="stroke-width:0.26458332"
         id="path1252" />
      <path
         d="m 120.59522,45.757261 v 3.493326 h -0.95084 v -3.46232 q 0,-0.821656 -0.3204,-1.229899 -0.32039,-0.408244 -0.96118,-0.408244 -0.76998,0 -1.2144,0.490926 -0.44441,0.490926 -0.44441,1.338419 v 3.271118 h -0.95602 v -8.040852 h 0.95602 v 3.152262 q 0.34106,-0.521932 0.80098,-0.780314 0.46509,-0.258382 1.0697,-0.258382 0.99736,0 1.50895,0.620117 0.5116,0.61495 0.5116,1.813843 z"
         style="stroke-width:0.26458332"
         id="path1254" />
    </g>
    <rect
       style="fill:#ffffff;fill-opacity:1;stroke:#000000;stroke-width:0.24116041;stroke-miterlimit:4;stroke-dasharray:none;stroke-dashoffset:0"
       id="rect852-3-6"
       width="41.288246"
       height="13.760838"
       x="155.30379"
       y="106.76869" />
    <g
       aria-label="Scatter"
       style="font-style:normal;font-weight:normal;font-size:10.58333302px;line-height:1.25;font-family:sans-serif;letter-spacing:0px;word-spacing:0px;fill:#000000;fill-opacity:1;stroke:none;stroke-width:0.26458332"
       id="text823">
      <path
         d="m 162.72953,110.39619 v 1.01803 q -0.59428,-0.28422 -1.12138,-0.42375 -0.5271,-0.13953 -1.01802,-0.13953 -0.85266,0 -1.31775,0.33073 -0.45992,0.33073 -0.45992,0.94051 0,0.5116 0.30489,0.77515 0.31006,0.25838 1.16789,0.41858 l 0.63045,0.12919 q 1.16789,0.22221 1.72083,0.78548 0.5581,0.55811 0.5581,1.49862 0,1.12138 -0.75448,1.70015 -0.7493,0.57878 -2.20141,0.57878 -0.54777,0 -1.16789,-0.12402 -0.61495,-0.12403 -1.27641,-0.36691 v -1.07487 q 0.63562,0.35657 1.24541,0.53744 0.60978,0.18087 1.19889,0.18087 0.894,0 1.37976,-0.3514 0.48576,-0.3514 0.48576,-1.00253 0,-0.56844 -0.3514,-0.88883 -0.34623,-0.32039 -1.14205,-0.48059 l -0.63562,-0.12402 q -1.16789,-0.23255 -1.68982,-0.72864 -0.52193,-0.4961 -0.52193,-1.37976 0,-1.0232 0.7183,-1.61231 0.72347,-0.58911 1.98954,-0.58911 0.54261,0 1.10588,0.0982 0.56327,0.0982 1.15238,0.29455 z"
         style="stroke-width:0.26458332"
         id="path1233" />
      <path
         d="m 168.94621,112.29272 v 0.88883 q -0.40308,-0.22221 -0.81132,-0.33073 -0.40308,-0.11369 -0.81649,-0.11369 -0.92501,0 -1.4366,0.58912 -0.5116,0.58394 -0.5116,1.64331 0,1.05936 0.5116,1.64847 0.51159,0.58395 1.4366,0.58395 0.41341,0 0.81649,-0.10852 0.40824,-0.11369 0.81132,-0.3359 v 0.8785 q -0.39791,0.18604 -0.82683,0.27905 -0.42374,0.093 -0.90433,0.093 -1.30742,0 -2.0774,-0.82165 -0.76997,-0.82166 -0.76997,-2.21692 0,-1.41594 0.77514,-2.22726 0.78032,-0.81132 2.13424,-0.81132 0.43925,0 0.85783,0.093 0.41858,0.0879 0.81132,0.26872 z"
         style="stroke-width:0.26458332"
         id="path1235" />
      <path
         d="m 173.24052,114.94889 q -1.15239,0 -1.5968,0.26355 -0.44442,0.26355 -0.44442,0.89917 0,0.50642 0.33073,0.80615 0.3359,0.29455 0.9095,0.29455 0.79065,0 1.26608,-0.5581 0.48059,-0.56328 0.48059,-1.49345 v -0.21187 z m 1.89652,-0.39275 v 3.30213 h -0.95084 v -0.8785 q -0.32556,0.5271 -0.81132,0.78031 -0.48576,0.24805 -1.18856,0.24805 -0.88884,0 -1.41593,-0.49609 -0.52194,-0.50126 -0.52194,-1.33842 0,-0.97669 0.65113,-1.47278 0.65629,-0.49609 1.95337,-0.49609 h 1.33325 v -0.093 q 0,-0.65629 -0.43408,-1.01286 -0.42892,-0.36174 -1.20923,-0.36174 -0.4961,0 -0.96635,0.11886 -0.47026,0.11886 -0.90434,0.35657 v -0.8785 q 0.52193,-0.20154 1.01286,-0.29973 0.49092,-0.10335 0.95601,-0.10335 1.25574,0 1.87586,0.65113 0.62011,0.65112 0.62011,1.97403 z"
         style="stroke-width:0.26458332"
         id="path1237" />
      <path
         d="m 178.04126,110.4272 v 1.64331 h 1.95854 v 0.73897 h -1.95854 v 3.14193 q 0,0.70797 0.1912,0.9095 0.19637,0.20154 0.79065,0.20154 h 0.97669 v 0.79582 h -0.97669 q -1.10071,0 -1.51929,-0.40825 -0.41857,-0.41341 -0.41857,-1.49861 v -3.14193 h -0.69764 v -0.73897 h 0.69764 v -1.64331 z"
         style="stroke-width:0.26458332"
         id="path1239" />
      <path
         d="m 182.19604,110.4272 v 1.64331 h 1.95854 v 0.73897 h -1.95854 v 3.14193 q 0,0.70797 0.19121,0.9095 0.19637,0.20154 0.79065,0.20154 h 0.97668 v 0.79582 h -0.97668 q -1.10071,0 -1.51929,-0.40825 -0.41858,-0.41341 -0.41858,-1.49861 v -3.14193 h -0.69763 v -0.73897 h 0.69763 v -1.64331 z"
         style="stroke-width:0.26458332"
         id="path1241" />
      <path
         d="m 190.36092,114.72668 v 0.46508 h -4.37182 q 0.062,0.98186 0.58911,1.49862 0.53226,0.5116 1.47794,0.5116 0.54777,0 1.05937,-0.13436 0.51676,-0.13436 1.02319,-0.40308 v 0.89917 q -0.51159,0.21704 -1.04903,0.33073 -0.53743,0.11369 -1.09037,0.11369 -1.38493,0 -2.19625,-0.80615 -0.80615,-0.80615 -0.80615,-2.18075 0,-1.4211 0.76481,-2.25309 0.76998,-0.83716 2.07222,-0.83716 1.16789,0 1.84485,0.75448 0.68213,0.74931 0.68213,2.04122 z m -0.95085,-0.27906 q -0.0103,-0.78031 -0.43924,-1.2454 -0.42375,-0.46509 -1.12655,-0.46509 -0.79582,0 -1.27641,0.44959 -0.47542,0.44958 -0.54777,1.26607 z"
         style="stroke-width:0.26458332"
         id="path1243" />
      <path
         d="m 195.27535,112.95934 q -0.1602,-0.093 -0.3514,-0.13436 -0.18604,-0.0465 -0.41341,-0.0465 -0.80615,0 -1.24024,0.5271 -0.42891,0.52193 -0.42891,1.50378 v 3.04891 h -0.95601 v -5.78776 h 0.95601 v 0.89917 q 0.29972,-0.5271 0.78031,-0.78032 0.48059,-0.25838 1.16789,-0.25838 0.0982,0 0.21704,0.0155 0.11886,0.0103 0.26355,0.0362 z"
         style="stroke-width:0.26458332"
         id="path1245" />
    </g>
    <rect
       style="fill:#ffffff;fill-opacity:1;stroke:#000000;stroke-width:0.25040501;stroke-miterlimit:4;stroke-dasharray:none;stroke-dashoffset:0"
       id="rect852-3-6-7"
       width="34.471115"
       height="17.770103"
       x="89.885658"
       y="175.55634" />
    <g
       aria-label="Solve"
       style="font-style:normal;font-weight:normal;font-size:10.58333302px;line-height:1.25;font-family:sans-serif;letter-spacing:0px;word-spacing:0px;fill:#000000;fill-opacity:1;stroke:none;stroke-width:0.26458332"
       id="text827">
      <path
         d="m 98.668131,181.14069 v 1.01803 q -0.594279,-0.28422 -1.121378,-0.42375 -0.5271,-0.13953 -1.018026,-0.13953 -0.852661,0 -1.317749,0.33073 -0.45992,0.33073 -0.45992,0.94051 0,0.5116 0.304891,0.77515 0.310058,0.25838 1.167887,0.41858 l 0.630453,0.12919 q 1.167887,0.22221 1.720825,0.78548 0.558105,0.55811 0.558105,1.49862 0,1.12138 -0.754476,1.70015 -0.749308,0.57878 -2.201416,0.57878 -0.54777,0 -1.167887,-0.12402 -0.614949,-0.12403 -1.276408,-0.36691 v -1.07487 q 0.63562,0.35657 1.245402,0.53744 0.609782,0.18087 1.198893,0.18087 0.894003,0 1.379761,-0.3514 0.485759,-0.3514 0.485759,-1.00253 0,-0.56844 -0.3514,-0.88883 -0.346232,-0.32039 -1.142049,-0.48059 l -0.63562,-0.12403 q -1.167888,-0.23254 -1.68982,-0.72863 -0.521932,-0.4961 -0.521932,-1.37976 0,-1.0232 0.718303,-1.61231 0.72347,-0.58911 1.989542,-0.58911 0.542603,0 1.105876,0.0982 0.563273,0.0982 1.152384,0.29455 z"
         style="stroke-width:0.26458332"
         id="path1191" />
      <path
         d="m 102.96244,183.48163 q -0.76481,0 -1.20923,0.59945 -0.44441,0.59428 -0.44441,1.63298 0,1.03869 0.43925,1.63814 0.44441,0.59428 1.21439,0.59428 0.75965,0 1.20406,-0.59945 0.44442,-0.59945 0.44442,-1.63297 0,-1.02837 -0.44442,-1.62781 -0.44441,-0.60462 -1.20406,-0.60462 z m 0,-0.80615 q 1.24024,0 1.9482,0.80615 0.70797,0.80616 0.70797,2.23243 0,1.4211 -0.70797,2.23242 -0.70796,0.80615 -1.9482,0.80615 -1.2454,0 -1.95337,-0.80615 -0.7028,-0.81132 -0.7028,-2.23242 0,-1.42627 0.7028,-2.23243 0.70797,-0.80615 1.95337,-0.80615 z"
         style="stroke-width:0.26458332"
         id="path1193" />
      <path
         d="m 107.18957,180.56192 h 0.95085 v 8.04085 h -0.95085 z"
         style="stroke-width:0.26458332"
         id="path1195" />
      <path
         d="m 109.44267,182.81501 h 1.00769 l 1.80867,4.85758 1.80868,-4.85758 h 1.00769 l -2.17041,5.78776 h -1.29191 z"
         style="stroke-width:0.26458332"
         id="path1197" />
      <path
         d="m 121.33858,185.47118 v 0.46508 h -4.37182 q 0.062,0.98186 0.58911,1.49862 0.53226,0.5116 1.47794,0.5116 0.54777,0 1.05937,-0.13436 0.51676,-0.13436 1.02319,-0.40308 v 0.89917 q -0.51159,0.21704 -1.04903,0.33073 -0.53743,0.11369 -1.09037,0.11369 -1.38493,0 -2.19625,-0.80615 -0.80615,-0.80616 -0.80615,-2.18075 0,-1.4211 0.76481,-2.25309 0.76998,-0.83716 2.07222,-0.83716 1.16789,0 1.84485,0.75448 0.68213,0.74931 0.68213,2.04122 z m -0.95084,-0.27906 q -0.0103,-0.78031 -0.43925,-1.2454 -0.42375,-0.46509 -1.12655,-0.46509 -0.79582,0 -1.27641,0.44959 -0.47542,0.44958 -0.54777,1.26607 z"
         style="stroke-width:0.26458332"
         id="path1199" />
    </g>
    <rect
       style="fill:#ffffff;fill-opacity:1;stroke:#000000;stroke-width:0.24574663;stroke-miterlimit:4;stroke-dasharray:none;stroke-dashoffset:0"
       id="rect852-3"
       width="41.283661"
       height="14.290791"
       x="18.497704"
       y="108.10733" />
    <g
       aria-label="Gather"
       style="font-style:normal;font-weight:normal;font-size:10.58333302px;line-height:1.25;font-family:sans-serif;letter-spacing:0px;word-spacing:0px;fill:#000000;fill-opacity:1;stroke:none;stroke-width:0.26458332"
       id="text831">
      <path
         d="m 27.251128,117.58624 v -2.07223 h -1.705323 v -0.85783 h 2.738851 v 3.31246 q -0.604614,0.42892 -1.333252,0.65112 -0.728637,0.21704 -1.55546,0.21704 -1.808675,0 -2.831869,-1.05419 -1.018025,-1.05937 -1.018025,-2.94556 0,-1.89136 1.018025,-2.94556 1.023194,-1.05936 2.831869,-1.05936 0.754476,0 1.431437,0.18603 0.682129,0.18604 1.255737,0.54777 v 1.11104 q -0.578776,-0.49092 -1.229899,-0.73897 -0.651123,-0.24805 -1.369425,-0.24805 -1.415934,0 -2.129069,0.79065 -0.707967,0.79065 -0.707967,2.35645 0,1.56063 0.707967,2.35128 0.713135,0.79065 2.129069,0.79065 0.552938,0 0.98702,-0.093 0.434082,-0.0982 0.780314,-0.29972 z"
         style="stroke-width:0.26458332"
         id="path1258" />
      <path
         d="m 32.785673,115.77756 q -1.152384,0 -1.596802,0.26355 -0.444417,0.26355 -0.444417,0.89917 0,0.50643 0.330729,0.80615 0.335897,0.29456 0.909505,0.29456 0.79065,0 1.266073,-0.55811 0.480591,-0.56327 0.480591,-1.49345 v -0.21187 z m 1.896525,-0.39274 v 3.30212 h -0.950846 v -0.8785 q -0.325562,0.5271 -0.81132,0.78032 -0.485759,0.24804 -1.188558,0.24804 -0.888835,0 -1.415934,-0.49609 -0.521932,-0.50126 -0.521932,-1.33842 0,-0.97668 0.651123,-1.47278 0.65629,-0.49609 1.953369,-0.49609 h 1.333252 v -0.093 q 0,-0.65629 -0.434082,-1.01286 -0.428915,-0.36173 -1.209229,-0.36173 -0.496094,0 -0.966349,0.11885 -0.470256,0.11886 -0.904338,0.35657 v -0.8785 q 0.521932,-0.20154 1.012858,-0.29972 0.490927,-0.10335 0.956014,-0.10335 1.255738,0 1.875855,0.65112 0.620117,0.65112 0.620117,1.97404 z"
         style="stroke-width:0.26458332"
         id="path1260" />
      <path
         d="m 37.586413,111.25587 v 1.64331 h 1.958537 v 0.73898 h -1.958537 v 3.14192 q 0,0.70797 0.191203,0.90951 0.196371,0.20154 0.79065,0.20154 h 0.976684 v 0.79581 h -0.976684 q -1.100708,0 -1.519288,-0.40824 -0.418579,-0.41341 -0.418579,-1.49862 v -3.14192 h -0.697631 v -0.73898 h 0.697631 v -1.64331 z"
         style="stroke-width:0.26458332"
         id="path1262" />
      <path
         d="m 45.611764,115.19362 v 3.49332 h -0.950846 v -3.46232 q 0,-0.82165 -0.320394,-1.2299 -0.320394,-0.40824 -0.961182,-0.40824 -0.769979,0 -1.214396,0.49093 -0.444417,0.49092 -0.444417,1.33841 v 3.27112 h -0.956014 v -8.04085 h 0.956014 v 3.15226 q 0.341064,-0.52193 0.800985,-0.78031 0.465087,-0.25838 1.069702,-0.25838 0.997355,0 1.508951,0.62011 0.511597,0.61495 0.511597,1.81385 z"
         style="stroke-width:0.26458332"
         id="path1264" />
      <path
         d="m 52.469226,115.55535 v 0.46509 H 48.0974 q 0.06201,0.98185 0.589111,1.49862 0.532268,0.51159 1.477946,0.51159 0.54777,0 1.059367,-0.13436 0.516764,-0.13436 1.023193,-0.40307 v 0.89917 q -0.511596,0.21704 -1.049031,0.33073 -0.537435,0.11368 -1.090373,0.11368 -1.384928,0 -2.196248,-0.80615 -0.806152,-0.80615 -0.806152,-2.18074 0,-1.4211 0.764811,-2.2531 0.769979,-0.83715 2.072225,-0.83715 1.167887,0 1.844848,0.75447 0.682129,0.74931 0.682129,2.04122 z M 51.51838,115.2763 q -0.01034,-0.78032 -0.43925,-1.2454 -0.423747,-0.46509 -1.126546,-0.46509 -0.795817,0 -1.276408,0.44958 -0.475423,0.44959 -0.54777,1.26608 z"
         style="stroke-width:0.26458332"
         id="path1266" />
      <path
         d="m 57.383653,113.78802 q -0.160197,-0.093 -0.3514,-0.13436 -0.186035,-0.0465 -0.413411,-0.0465 -0.806153,0 -1.240235,0.5271 -0.428914,0.52193 -0.428914,1.50378 v 3.04891 h -0.956014 v -5.78776 h 0.956014 v 0.89917 q 0.299723,-0.5271 0.780314,-0.78031 0.480591,-0.25838 1.167887,-0.25838 0.09819,0 0.217041,0.0155 0.118856,0.0103 0.26355,0.0362 z"
         style="stroke-width:0.26458332"
         id="path1268" />
    </g>
    <rect
       style="fill:#ffffff;fill-opacity:1;stroke:none;stroke-width:0.28499618;stroke-miterlimit:4;stroke-dasharray:none;stroke-dashoffset:0"
       id="rect852-3-1-2-7"
       width="51.400642"
       height="9.7079639"
       x="137.73613"
       y="67.504837" />
    <g
       aria-label="położenia i prędkości"
       style="font-style:normal;font-weight:normal;font-size:4.58611107px;line-height:1.25;font-family:sans-serif;letter-spacing:0px;word-spacing:0px;fill:#000000;fill-opacity:1;stroke:none;stroke-width:0.26458332"
       id="text913">
      <path
         d="m 140.74752,74.120774 v 1.330152 h -0.41428 v -3.461977 h 0.41428 v 0.380683 q 0.12988,-0.223931 0.32694,-0.331418 0.1993,-0.109726 0.47473,-0.109726 0.45682,0 0.74121,0.362768 0.28664,0.362769 0.28664,0.953947 0,0.591179 -0.28664,0.953947 -0.28439,0.362769 -0.74121,0.362769 -0.27543,0 -0.47473,-0.107487 -0.19706,-0.109726 -0.32694,-0.333658 z m 1.40181,-0.875571 q 0,-0.45458 -0.18811,-0.712101 -0.18586,-0.25976 -0.5128,-0.25976 -0.32694,0 -0.51504,0.25976 -0.18586,0.257521 -0.18586,0.712101 0,0.454581 0.18586,0.714341 0.1881,0.257521 0.51504,0.257521 0.32694,0 0.5128,-0.257521 0.18811,-0.25976 0.18811,-0.714341 z"
         style="stroke-width:0.26458332"
         id="path1109" />
      <path
         d="m 144.23189,72.277821 q -0.33142,0 -0.524,0.25976 -0.19258,0.257521 -0.19258,0.707622 0,0.450102 0.19034,0.709862 0.19258,0.257521 0.52624,0.257521 0.32918,0 0.52176,-0.25976 0.19258,-0.25976 0.19258,-0.707623 0,-0.445623 -0.19258,-0.705383 -0.19258,-0.261999 -0.52176,-0.261999 z m 0,-0.349333 q 0.53743,0 0.84422,0.349333 0.30678,0.349332 0.30678,0.967382 0,0.615811 -0.30678,0.967383 -0.30679,0.349333 -0.84422,0.349333 -0.53968,0 -0.84646,-0.349333 -0.30455,-0.351572 -0.30455,-0.967383 0,-0.61805 0.30455,-0.967382 0.30678,-0.349333 0.84646,-0.349333 z"
         style="stroke-width:0.26458332"
         id="path1111" />
      <path
         d="m 146.07708,71.012609 h 0.41203 v 1.348066 l 0.27992,-0.201538 0.17019,0.237367 -0.45011,0.315743 v 1.784732 h -0.41203 v -1.491382 l -0.27543,0.197059 -0.16571,-0.237367 0.44114,-0.315743 z"
         style="stroke-width:0.26458332"
         id="path1113" />
      <path
         d="m 148.34326,72.277821 q -0.33141,0 -0.524,0.25976 -0.19258,0.257521 -0.19258,0.707622 0,0.450102 0.19035,0.709862 0.19258,0.257521 0.52623,0.257521 0.32918,0 0.52176,-0.25976 0.19258,-0.25976 0.19258,-0.707623 0,-0.445623 -0.19258,-0.705383 -0.19258,-0.261999 -0.52176,-0.261999 z m 0,-0.349333 q 0.53744,0 0.84422,0.349333 0.30679,0.349332 0.30679,0.967382 0,0.615811 -0.30679,0.967383 -0.30678,0.349333 -0.84422,0.349333 -0.53967,0 -0.84646,-0.349333 -0.30454,-0.351572 -0.30454,-0.967383 0,-0.61805 0.30454,-0.967382 0.30679,-0.349333 0.84646,-0.349333 z"
         style="stroke-width:0.26458332"
         id="path1115" />
      <path
         d="m 150.73037,71.012609 h 0.41203 v 0.52176 h -0.41203 z m 0.2105,0.915879 z m -0.94499,0.06046 h 1.95716 v 0.376205 l -1.54961,1.802646 h 1.54961 v 0.329179 h -2.01315 v -0.376205 l 1.54961,-1.802646 h -1.49362 z"
         style="stroke-width:0.26458332"
         id="path1117" />
      <path
         d="m 154.72978,73.139956 v 0.201538 h -1.89446 q 0.0269,0.425469 0.25529,0.6494 0.23064,0.221692 0.64044,0.221692 0.23737,0 0.45906,-0.05822 0.22393,-0.05822 0.44338,-0.174666 v 0.38964 q -0.22169,0.09405 -0.45458,0.143316 -0.23289,0.04927 -0.47249,0.04927 -0.60014,0 -0.95171,-0.349333 -0.34933,-0.349333 -0.34933,-0.94499 0,-0.61581 0.33141,-0.97634 0.33366,-0.362768 0.89797,-0.362768 0.50608,0 0.79943,0.326939 0.29559,0.324701 0.29559,0.884529 z m -0.41203,-0.120923 q -0.004,-0.338136 -0.19034,-0.539674 -0.18363,-0.201538 -0.48817,-0.201538 -0.34486,0 -0.55311,0.19482 -0.20602,0.19482 -0.23737,0.548631 z"
         style="stroke-width:0.26458332"
         id="path1119" />
      <path
         d="m 157.49085,72.983204 v 1.513775 h -0.41203 V 72.99664 q 0,-0.356051 -0.13884,-0.532957 -0.13883,-0.176905 -0.41651,-0.176905 -0.33366,0 -0.52624,0.212734 -0.19258,0.212735 -0.19258,0.579982 v 1.417485 h -0.41427 v -2.50803 h 0.41427 v 0.389641 q 0.1478,-0.226171 0.34709,-0.338137 0.20154,-0.111965 0.46354,-0.111965 0.43219,0 0.65388,0.268717 0.22169,0.266478 0.22169,0.785999 z"
         style="stroke-width:0.26458332"
         id="path1121" />
      <path
         d="m 158.31716,71.988949 h 0.41203 v 2.50803 h -0.41203 z m 0,-0.97634 h 0.41203 v 0.52176 h -0.41203 z"
         style="stroke-width:0.26458332"
         id="path1123" />
      <path
         d="m 160.7289,73.236246 q -0.49937,0 -0.69195,0.114205 -0.19258,0.114205 -0.19258,0.38964 0,0.219453 0.14332,0.349333 0.14555,0.127641 0.39412,0.127641 0.34261,0 0.54863,-0.241846 0.20825,-0.244085 0.20825,-0.647161 v -0.09181 z m 0.82183,-0.170188 v 1.430921 h -0.41204 v -0.380683 q -0.14107,0.22841 -0.35157,0.338136 -0.21049,0.107487 -0.51504,0.107487 -0.38516,0 -0.61357,-0.214974 -0.22617,-0.217213 -0.22617,-0.579982 0,-0.42323 0.28215,-0.638204 0.28439,-0.214974 0.84646,-0.214974 h 0.57774 v -0.04031 q 0,-0.284393 -0.1881,-0.438906 -0.18586,-0.156751 -0.524,-0.156751 -0.21497,0 -0.41875,0.0515 -0.20378,0.0515 -0.39188,0.154512 v -0.380683 q 0.22617,-0.08733 0.43891,-0.12988 0.21273,-0.04479 0.41427,-0.04479 0.54415,0 0.81287,0.282153 0.26872,0.282153 0.26872,0.855417 z"
         style="stroke-width:0.26458332"
         id="path1125" />
      <path
         d="m 163.8617,71.988949 h 0.41203 v 2.50803 h -0.41203 z m 0,-0.97634 h 0.41203 v 0.52176 h -0.41203 z"
         style="stroke-width:0.26458332"
         id="path1127" />
      <path
         d="m 166.99226,74.120774 v 1.330152 h -0.41428 v -3.461977 h 0.41428 v 0.380683 q 0.12988,-0.223931 0.32693,-0.331418 0.1993,-0.109726 0.47474,-0.109726 0.45682,0 0.74121,0.362768 0.28663,0.362769 0.28663,0.953947 0,0.591179 -0.28663,0.953947 -0.28439,0.362769 -0.74121,0.362769 -0.27544,0 -0.47474,-0.107487 -0.19705,-0.109726 -0.32693,-0.333658 z m 1.4018,-0.875571 q 0,-0.45458 -0.1881,-0.712101 -0.18586,-0.25976 -0.5128,-0.25976 -0.32694,0 -0.51504,0.25976 -0.18586,0.257521 -0.18586,0.712101 0,0.454581 0.18586,0.714341 0.1881,0.257521 0.51504,0.257521 0.32694,0 0.5128,-0.257521 0.1881,-0.25976 0.1881,-0.714341 z"
         style="stroke-width:0.26458332"
         id="path1129" />
      <path
         d="m 170.95808,72.374111 q -0.0694,-0.04031 -0.15228,-0.05822 -0.0806,-0.02015 -0.17914,-0.02015 -0.34934,0 -0.53744,0.22841 -0.18586,0.22617 -0.18586,0.65164 v 1.321194 h -0.41427 v -2.50803 h 0.41427 v 0.389641 q 0.12988,-0.22841 0.33814,-0.338137 0.20825,-0.111965 0.50608,-0.111965 0.0426,0 0.0941,0.0067 0.0515,0.0045 0.11421,0.01568 z"
         style="stroke-width:0.26458332"
         id="path1131" />
      <path
         d="m 173.54,73.139956 v 0.201538 h -1.89445 q 0.0269,0.425469 0.25528,0.6494 0.23065,0.221692 0.64044,0.221692 0.23737,0 0.45906,-0.05822 0.22393,-0.05822 0.44338,-0.174666 v 0.38964 q -0.22169,0.09405 -0.45458,0.143316 -0.23289,0.04927 -0.47249,0.04927 -0.60014,0 -0.95171,-0.349333 -0.34933,-0.349333 -0.34933,-0.94499 0,-0.61581 0.33142,-0.97634 0.33365,-0.362768 0.89796,-0.362768 0.50608,0 0.79943,0.326939 0.29559,0.324701 0.29559,0.884529 z m -0.41203,-0.120923 q -0.004,-0.338136 -0.19034,-0.539674 -0.18363,-0.201538 -0.48817,-0.201538 -0.34486,0 -0.55311,0.19482 -0.20602,0.19482 -0.23737,0.548631 z m -0.33814,1.477946 h 0.26648 q -0.10077,0.136598 -0.15003,0.235128 -0.047,0.09853 -0.047,0.167948 0,0.103008 0.0605,0.154512 0.0627,0.0515 0.18363,0.0515 0.0717,0 0.14107,-0.01792 0.0694,-0.01568 0.13884,-0.04926 v 0.297829 q -0.0851,0.02239 -0.16123,0.03359 -0.0761,0.0112 -0.14332,0.0112 -0.27319,0 -0.40307,-0.09853 -0.12764,-0.09629 -0.12764,-0.304546 0,-0.107487 0.0582,-0.226171 0.0605,-0.116444 0.18362,-0.255281 z"
         style="stroke-width:0.26458332"
         id="path1133" />
      <path
         d="m 175.86665,72.369632 v -1.357023 h 0.41203 v 3.48437 h -0.41203 v -0.376205 q -0.12988,0.223932 -0.32918,0.333658 -0.19706,0.107487 -0.47473,0.107487 -0.45459,0 -0.74122,-0.362769 -0.28439,-0.362768 -0.28439,-0.953947 0,-0.591178 0.28439,-0.953947 0.28663,-0.362768 0.74122,-0.362768 0.27767,0 0.47473,0.109726 0.1993,0.107487 0.32918,0.331418 z m -1.40405,0.875571 q 0,0.454581 0.18586,0.714341 0.1881,0.257521 0.51504,0.257521 0.32694,0 0.51505,-0.257521 0.1881,-0.25976 0.1881,-0.714341 0,-0.45458 -0.1881,-0.712101 -0.18811,-0.25976 -0.51505,-0.25976 -0.32694,0 -0.51504,0.25976 -0.18586,0.257521 -0.18586,0.712101 z"
         style="stroke-width:0.26458332"
         id="path1135" />
      <path
         d="m 177.11171,71.012609 h 0.41427 v 2.057928 l 1.22938,-1.081588 h 0.52624 l -1.33015,1.1734 1.38613,1.33463 h -0.53743 l -1.27417,-1.224904 v 1.224904 h -0.41427 z"
         style="stroke-width:0.26458332"
         id="path1137" />
      <path
         d="m 180.59832,72.277821 q -0.33142,0 -0.524,0.25976 -0.19258,0.257521 -0.19258,0.707622 0,0.450102 0.19034,0.709862 0.19258,0.257521 0.52624,0.257521 0.32917,0 0.52176,-0.25976 0.19258,-0.25976 0.19258,-0.707623 0,-0.445623 -0.19258,-0.705383 -0.19259,-0.261999 -0.52176,-0.261999 z m 0,-0.349333 q 0.53743,0 0.84422,0.349333 0.30678,0.349332 0.30678,0.967382 0,0.615811 -0.30678,0.967383 -0.30679,0.349333 -0.84422,0.349333 -0.53968,0 -0.84646,-0.349333 -0.30455,-0.351572 -0.30455,-0.967383 0,-0.61805 0.30455,-0.967382 0.30678,-0.349333 0.84646,-0.349333 z"
         style="stroke-width:0.26458332"
         id="path1139" />
      <path
         d="m 183.60347,70.81331 h 0.44562 l -0.73001,0.841982 h -0.34262 z m 0.42547,1.249537 v 0.38964 q -0.17467,-0.08957 -0.36277,-0.134359 -0.1881,-0.04479 -0.38964,-0.04479 -0.30679,0 -0.4613,0.09405 -0.15227,0.09405 -0.15227,0.282153 0,0.143316 0.10972,0.226171 0.10973,0.08062 0.44115,0.154512 l 0.14108,0.03135 q 0.4389,0.09405 0.62252,0.266478 0.18587,0.170188 0.18587,0.476973 0,0.349333 -0.27768,0.55311 -0.27543,0.203778 -0.75912,0.203778 -0.20154,0 -0.42099,-0.04031 -0.21722,-0.03807 -0.45906,-0.116444 v -0.425469 q 0.22841,0.118683 0.4501,0.179145 0.22169,0.05822 0.4389,0.05822 0.29111,0 0.44787,-0.09853 0.15675,-0.100769 0.15675,-0.282153 0,-0.167949 -0.11421,-0.257521 -0.11196,-0.08957 -0.49489,-0.172427 l -0.14331,-0.03359 q -0.38292,-0.08061 -0.55311,-0.246324 -0.17019,-0.167949 -0.17019,-0.459059 0,-0.353811 0.2508,-0.546392 0.25081,-0.192581 0.71211,-0.192581 0.2284,0 0.42994,0.03359 0.20154,0.03359 0.37173,0.100769 z"
         style="stroke-width:0.26458332"
         id="path1141" />
      <path
         d="m 186.62654,72.08524 v 0.385161 q -0.17466,-0.09629 -0.35157,-0.143316 -0.17467,-0.04926 -0.35381,-0.04926 -0.40084,0 -0.62253,0.255281 -0.22169,0.253042 -0.22169,0.712101 0,0.459059 0.22169,0.714341 0.22169,0.253042 0.62253,0.253042 0.17914,0 0.35381,-0.04703 0.17691,-0.04926 0.35157,-0.145556 v 0.380683 q -0.17243,0.08062 -0.35829,0.120923 -0.18362,0.04031 -0.39188,0.04031 -0.56654,0 -0.9002,-0.356051 -0.33366,-0.35605 -0.33366,-0.960665 0,-0.613571 0.3359,-0.965143 0.33813,-0.351572 0.92483,-0.351572 0.19035,0 0.37173,0.04031 0.18138,0.03807 0.35157,0.116445 z"
         style="stroke-width:0.26458332"
         id="path1143" />
      <path
         d="m 187.3476,71.988949 h 0.41203 v 2.50803 h -0.41203 z m 0,-0.97634 h 0.41203 v 0.52176 h -0.41203 z"
         style="stroke-width:0.26458332"
         id="path1145" />
    </g>
    <rect
       style="fill:#ffffff;fill-opacity:1;stroke:none;stroke-width:0.28499618;stroke-miterlimit:4;stroke-dasharray:none;stroke-dashoffset:0"
       id="rect852-3-1-2-7-0"
       width="60.220543"
       height="7.0352631"
       x="138.80521"
       y="157.84193" />
    <g
       aria-label="gęstości ładunku i prądu"
       style="font-style:normal;font-weight:normal;font-size:4.58611107px;line-height:1.25;font-family:sans-serif;letter-spacing:0px;word-spacing:0px;fill:#000000;fill-opacity:1;stroke:none;stroke-width:0.26458332"
       id="text913-5">
      <path
         d="m 142.45837,161.70859 q 0,-0.44786 -0.18586,-0.69419 -0.18363,-0.24632 -0.51729,-0.24632 -0.33141,0 -0.51728,0.24632 -0.18362,0.24633 -0.18362,0.69419 0,0.44562 0.18362,0.69195 0.18587,0.24632 0.51728,0.24632 0.33366,0 0.51729,-0.24632 0.18586,-0.24633 0.18586,-0.69195 z m 0.41203,0.97186 q 0,0.64044 -0.28439,0.95171 -0.28439,0.3135 -0.87109,0.3135 -0.21722,0 -0.4098,-0.0336 -0.19258,-0.0314 -0.37396,-0.0985 v -0.40083 q 0.18138,0.0985 0.35829,0.14555 0.1769,0.047 0.36053,0.047 0.40531,0 0.60685,-0.21274 0.20154,-0.21049 0.20154,-0.6382 v -0.20378 q -0.12764,0.22169 -0.32694,0.33142 -0.1993,0.10972 -0.47697,0.10972 -0.4613,0 -0.74346,-0.35157 -0.28215,-0.35157 -0.28215,-0.93155 0,-0.58222 0.28215,-0.93379 0.28216,-0.35158 0.74346,-0.35158 0.27767,0 0.47697,0.10973 0.1993,0.10973 0.32694,0.33142 v -0.38069 h 0.41203 z"
         style="stroke-width:0.26458332"
         id="path1148" />
      <path
         d="m 145.86436,161.63469 v 0.20154 h -1.89446 q 0.0269,0.42547 0.25529,0.6494 0.23065,0.22169 0.64044,0.22169 0.23737,0 0.45906,-0.0582 0.22393,-0.0582 0.44338,-0.17467 v 0.38964 q -0.22169,0.0941 -0.45458,0.14332 -0.23289,0.0493 -0.47249,0.0493 -0.60014,0 -0.95171,-0.34933 -0.34933,-0.34933 -0.34933,-0.94499 0,-0.61581 0.33141,-0.97634 0.33366,-0.36277 0.89797,-0.36277 0.50608,0 0.79943,0.32694 0.29559,0.3247 0.29559,0.88453 z m -0.41203,-0.12092 q -0.004,-0.33814 -0.19034,-0.53968 -0.18363,-0.20153 -0.48817,-0.20153 -0.34486,0 -0.55311,0.19482 -0.20602,0.19482 -0.23737,0.54863 z m -0.33814,1.47794 h 0.26648 q -0.10077,0.1366 -0.15003,0.23513 -0.047,0.0985 -0.047,0.16795 0,0.10301 0.0605,0.15451 0.0627,0.0515 0.18363,0.0515 0.0717,0 0.14107,-0.0179 0.0694,-0.0157 0.13884,-0.0493 v 0.29783 q -0.0851,0.0224 -0.16123,0.0336 -0.0761,0.0112 -0.14332,0.0112 -0.27319,0 -0.40307,-0.0985 -0.12764,-0.0963 -0.12764,-0.30454 0,-0.10749 0.0582,-0.22617 0.0605,-0.11645 0.18362,-0.25529 z"
         style="stroke-width:0.26458332"
         id="path1150" />
      <path
         d="m 148.1395,160.55758 v 0.38964 q -0.17466,-0.0896 -0.36276,-0.13436 -0.18811,-0.0448 -0.38965,-0.0448 -0.30678,0 -0.46129,0.0941 -0.15228,0.094 -0.15228,0.28215 0,0.14332 0.10973,0.22617 0.10973,0.0806 0.44114,0.15452 l 0.14108,0.0314 q 0.43891,0.0941 0.62253,0.26647 0.18586,0.17019 0.18586,0.47698 0,0.34933 -0.27767,0.55311 -0.27544,0.20377 -0.75913,0.20377 -0.20154,0 -0.42099,-0.0403 -0.21721,-0.0381 -0.45906,-0.11645 v -0.42547 q 0.22841,0.11869 0.4501,0.17915 0.22169,0.0582 0.43891,0.0582 0.29111,0 0.44786,-0.0985 0.15675,-0.10077 0.15675,-0.28215 0,-0.16795 -0.1142,-0.25752 -0.11197,-0.0896 -0.49489,-0.17243 l -0.14332,-0.0336 q -0.38292,-0.0806 -0.55311,-0.24632 -0.17018,-0.16795 -0.17018,-0.45906 0,-0.35381 0.2508,-0.5464 0.2508,-0.19258 0.7121,-0.19258 0.22841,0 0.42995,0.0336 0.20154,0.0336 0.37172,0.10077 z"
         style="stroke-width:0.26458332"
         id="path1152" />
      <path
         d="m 149.33977,159.77158 v 0.7121 h 0.8487 v 0.32023 h -0.8487 v 1.3615 q 0,0.30678 0.0829,0.39412 0.0851,0.0873 0.34261,0.0873 h 0.42323 v 0.34485 h -0.42323 q -0.47697,0 -0.65835,-0.1769 -0.18139,-0.17915 -0.18139,-0.6494 v -1.3615 h -0.30231 v -0.32023 h 0.30231 v -0.7121 z"
         style="stroke-width:0.26458332"
         id="path1154" />
      <path
         d="m 151.70449,160.77256 q -0.33142,0 -0.524,0.25976 -0.19258,0.25752 -0.19258,0.70762 0,0.4501 0.19034,0.70986 0.19258,0.25752 0.52624,0.25752 0.32918,0 0.52176,-0.25976 0.19258,-0.25976 0.19258,-0.70762 0,-0.44562 -0.19258,-0.70538 -0.19258,-0.262 -0.52176,-0.262 z m 0,-0.34934 q 0.53743,0 0.84422,0.34934 0.30678,0.34933 0.30678,0.96738 0,0.61581 -0.30678,0.96738 -0.30679,0.34933 -0.84422,0.34933 -0.53968,0 -0.84646,-0.34933 -0.30455,-0.35157 -0.30455,-0.96738 0,-0.61805 0.30455,-0.96738 0.30678,-0.34934 0.84646,-0.34934 z"
         style="stroke-width:0.26458332"
         id="path1156" />
      <path
         d="m 154.70965,159.30805 h 0.44562 l -0.73002,0.84198 h -0.34261 z m 0.42546,1.24953 v 0.38964 q -0.17466,-0.0896 -0.36276,-0.13436 -0.18811,-0.0448 -0.38964,-0.0448 -0.30679,0 -0.4613,0.0941 -0.15228,0.094 -0.15228,0.28215 0,0.14332 0.10973,0.22617 0.10973,0.0806 0.44114,0.15452 l 0.14108,0.0314 q 0.43891,0.0941 0.62253,0.26647 0.18586,0.17019 0.18586,0.47698 0,0.34933 -0.27767,0.55311 -0.27544,0.20377 -0.75913,0.20377 -0.20154,0 -0.42099,-0.0403 -0.21721,-0.0381 -0.45906,-0.11645 v -0.42547 q 0.22841,0.11869 0.4501,0.17915 0.2217,0.0582 0.43891,0.0582 0.29111,0 0.44786,-0.0985 0.15675,-0.10077 0.15675,-0.28215 0,-0.16795 -0.1142,-0.25752 -0.11197,-0.0896 -0.49489,-0.17243 l -0.14332,-0.0336 q -0.38292,-0.0806 -0.55311,-0.24632 -0.17018,-0.16795 -0.17018,-0.45906 0,-0.35381 0.2508,-0.5464 0.2508,-0.19258 0.7121,-0.19258 0.22841,0 0.42995,0.0336 0.20154,0.0336 0.37172,0.10077 z"
         style="stroke-width:0.26458332"
         id="path1158" />
      <path
         d="m 157.73272,160.57998 v 0.38516 q -0.17467,-0.0963 -0.35158,-0.14332 -0.17466,-0.0493 -0.35381,-0.0493 -0.40083,0 -0.62253,0.25528 -0.22169,0.25304 -0.22169,0.7121 0,0.45906 0.22169,0.71434 0.2217,0.25304 0.62253,0.25304 0.17915,0 0.35381,-0.047 0.17691,-0.0493 0.35158,-0.14556 v 0.38068 q -0.17243,0.0806 -0.35829,0.12093 -0.18363,0.0403 -0.39188,0.0403 -0.56655,0 -0.90021,-0.35605 -0.33365,-0.35605 -0.33365,-0.96066 0,-0.61357 0.33589,-0.96514 0.33814,-0.35158 0.92484,-0.35158 0.19034,0 0.37172,0.0403 0.18139,0.0381 0.35158,0.11645 z"
         style="stroke-width:0.26458332"
         id="path1160" />
      <path
         d="m 158.45377,160.48368 h 0.41204 v 2.50803 h -0.41204 z m 0,-0.97634 h 0.41204 v 0.52176 h -0.41204 z"
         style="stroke-width:0.26458332"
         id="path1162" />
      <path
         d="m 161.19917,159.50734 h 0.41203 v 1.34807 l 0.27992,-0.20154 0.17019,0.23737 -0.45011,0.31574 v 1.78473 h -0.41203 v -1.49138 l -0.27543,0.19706 -0.16571,-0.23736 0.44114,-0.31575 z"
         style="stroke-width:0.26458332"
         id="path1164" />
      <path
         d="m 163.6333,161.73098 q -0.49936,0 -0.69194,0.11421 -0.19259,0.1142 -0.19259,0.38964 0,0.21945 0.14332,0.34933 0.14556,0.12764 0.39412,0.12764 0.34261,0 0.54863,-0.24185 0.20826,-0.24408 0.20826,-0.64716 v -0.0918 z m 0.82183,-0.17019 v 1.43092 h -0.41203 v -0.38068 q -0.14108,0.22841 -0.35157,0.33814 -0.2105,0.10748 -0.51505,0.10748 -0.38516,0 -0.61357,-0.21497 -0.22617,-0.21721 -0.22617,-0.57998 0,-0.42323 0.28215,-0.63821 0.2844,-0.21497 0.84646,-0.21497 h 0.57775 v -0.0403 q 0,-0.28439 -0.18811,-0.4389 -0.18586,-0.15675 -0.52399,-0.15675 -0.21498,0 -0.41876,0.0515 -0.20377,0.0515 -0.39188,0.15451 v -0.38068 q 0.22618,-0.0873 0.43891,-0.12988 0.21273,-0.0448 0.41427,-0.0448 0.54416,0 0.81287,0.28216 0.26872,0.28215 0.26872,0.85541 z"
         style="stroke-width:0.26458332"
         id="path1166" />
      <path
         d="m 166.95644,160.86437 v -1.35703 h 0.41204 v 3.48437 h -0.41204 v -0.3762 q -0.12988,0.22393 -0.32918,0.33366 -0.19706,0.10748 -0.47473,0.10748 -0.45458,0 -0.74121,-0.36276 -0.2844,-0.36277 -0.2844,-0.95395 0,-0.59118 0.2844,-0.95395 0.28663,-0.36277 0.74121,-0.36277 0.27767,0 0.47473,0.10973 0.1993,0.10749 0.32918,0.33142 z m -1.40405,0.87557 q 0,0.45458 0.18587,0.71434 0.1881,0.25752 0.51504,0.25752 0.32694,0 0.51504,-0.25752 0.1881,-0.25976 0.1881,-0.71434 0,-0.45458 -0.1881,-0.7121 -0.1881,-0.25976 -0.51504,-0.25976 -0.32694,0 -0.51504,0.25976 -0.18587,0.25752 -0.18587,0.7121 z"
         style="stroke-width:0.26458332"
         id="path1168" />
      <path
         d="m 168.17463,162.00194 v -1.51826 h 0.41203 v 1.50258 q 0,0.35605 0.13884,0.5352 0.13884,0.1769 0.41651,0.1769 0.33366,0 0.52624,-0.21273 0.19482,-0.21273 0.19482,-0.57998 v -1.42197 h 0.41203 v 2.50803 h -0.41203 v -0.38516 q -0.15003,0.22841 -0.34933,0.34038 -0.19706,0.10972 -0.45906,0.10972 -0.43219,0 -0.65612,-0.26871 -0.22393,-0.26872 -0.22393,-0.786 z m 1.0368,-1.57872 z"
         style="stroke-width:0.26458332"
         id="path1170" />
      <path
         d="m 173.21308,161.47794 v 1.51377 h -0.41203 v -1.50033 q 0,-0.35606 -0.13884,-0.53296 -0.13884,-0.17691 -0.41651,-0.17691 -0.33366,0 -0.52624,0.21274 -0.19258,0.21273 -0.19258,0.57998 v 1.41748 h -0.41427 v -2.50803 h 0.41427 v 0.38965 q 0.14779,-0.22618 0.34709,-0.33814 0.20154,-0.11197 0.46354,-0.11197 0.43219,0 0.65388,0.26872 0.22169,0.26648 0.22169,0.786 z"
         style="stroke-width:0.26458332"
         id="path1172" />
      <path
         d="m 174.02371,159.50734 h 0.41428 v 2.05793 l 1.22938,-1.08159 h 0.52624 l -1.33016,1.1734 1.38614,1.33463 h -0.53744 l -1.27416,-1.2249 v 1.2249 h -0.41428 z"
         style="stroke-width:0.26458332"
         id="path1174" />
      <path
         d="m 176.51383,162.00194 v -1.51826 h 0.41203 v 1.50258 q 0,0.35605 0.13884,0.5352 0.13884,0.1769 0.41651,0.1769 0.33366,0 0.52624,-0.21273 0.19482,-0.21273 0.19482,-0.57998 v -1.42197 h 0.41203 v 2.50803 h -0.41203 v -0.38516 q -0.15003,0.22841 -0.34933,0.34038 -0.19706,0.10972 -0.45906,0.10972 -0.43219,0 -0.65612,-0.26871 -0.22393,-0.26872 -0.22393,-0.786 z m 1.0368,-1.57872 z"
         style="stroke-width:0.26458332"
         id="path1176" />
      <path
         d="m 180.92751,160.48368 h 0.41203 v 2.50803 h -0.41203 z m 0,-0.97634 h 0.41203 v 0.52176 h -0.41203 z"
         style="stroke-width:0.26458332"
         id="path1178" />
      <path
         d="m 184.05807,162.61551 v 1.33015 h -0.41427 v -3.46198 h 0.41427 v 0.38069 q 0.12988,-0.22393 0.32694,-0.33142 0.1993,-0.10973 0.47473,-0.10973 0.45682,0 0.74121,0.36277 0.28664,0.36277 0.28664,0.95395 0,0.59118 -0.28664,0.95395 -0.28439,0.36276 -0.74121,0.36276 -0.27543,0 -0.47473,-0.10748 -0.19706,-0.10973 -0.32694,-0.33366 z m 1.40181,-0.87557 q 0,-0.45458 -0.1881,-0.7121 -0.18587,-0.25976 -0.51281,-0.25976 -0.32694,0 -0.51504,0.25976 -0.18586,0.25752 -0.18586,0.7121 0,0.45458 0.18586,0.71434 0.1881,0.25752 0.51504,0.25752 0.32694,0 0.51281,-0.25752 0.1881,-0.25976 0.1881,-0.71434 z"
         style="stroke-width:0.26458332"
         id="path1180" />
      <path
         d="m 188.02389,160.86885 q -0.0694,-0.0403 -0.15227,-0.0582 -0.0806,-0.0202 -0.17915,-0.0202 -0.34933,0 -0.53743,0.22841 -0.18587,0.22617 -0.18587,0.65164 v 1.32119 h -0.41427 v -2.50803 h 0.41427 v 0.38965 q 0.12988,-0.22841 0.33814,-0.33814 0.20826,-0.11197 0.50608,-0.11197 0.0426,0 0.0941,0.007 0.0515,0.004 0.1142,0.0157 z"
         style="stroke-width:0.26458332"
         id="path1182" />
      <path
         d="m 189.60037,161.73098 q -0.49937,0 -0.69195,0.11421 -0.19258,0.1142 -0.19258,0.38964 0,0.21945 0.14331,0.34933 0.14556,0.12764 0.39412,0.12764 0.34262,0 0.54864,-0.24185 0.20825,-0.24408 0.20825,-0.64716 v -0.0918 z m 0.82182,-0.17019 v 1.43092 h -0.41203 v -0.38068 q -0.14108,0.22841 -0.35157,0.33814 -0.2105,0.10748 -0.51504,0.10748 -0.38516,0 -0.61357,-0.21497 -0.22617,-0.21721 -0.22617,-0.57998 0,-0.42323 0.28215,-0.63821 0.28439,-0.21497 0.84646,-0.21497 h 0.57774 v -0.0403 q 0,-0.28439 -0.1881,-0.4389 -0.18586,-0.15675 -0.524,-0.15675 -0.21497,0 -0.41875,0.0515 -0.20378,0.0515 -0.39188,0.15451 v -0.38068 q 0.22617,-0.0873 0.4389,-0.12988 0.21274,-0.0448 0.41428,-0.0448 0.54415,0 0.81287,0.28216 0.26871,0.28215 0.26871,0.85541 z m -0.40755,1.43092 h 0.26648 q -0.10077,0.1366 -0.15004,0.23513 -0.047,0.0985 -0.047,0.16795 0,0.10301 0.0605,0.15451 0.0627,0.0515 0.18362,0.0515 0.0717,0 0.14108,-0.0179 0.0694,-0.0157 0.13884,-0.0493 v 0.29783 q -0.0851,0.0224 -0.16123,0.0336 -0.0761,0.0112 -0.14332,0.0112 -0.2732,0 -0.40308,-0.0985 -0.12764,-0.0963 -0.12764,-0.30454 0,-0.10749 0.0582,-0.22617 0.0605,-0.11645 0.18362,-0.25529 z"
         style="stroke-width:0.26458332"
         id="path1184" />
      <path
         d="m 192.92351,160.86437 v -1.35703 h 0.41203 v 3.48437 h -0.41203 v -0.3762 q -0.12988,0.22393 -0.32918,0.33366 -0.19706,0.10748 -0.47474,0.10748 -0.45458,0 -0.74121,-0.36276 -0.28439,-0.36277 -0.28439,-0.95395 0,-0.59118 0.28439,-0.95395 0.28663,-0.36277 0.74121,-0.36277 0.27768,0 0.47474,0.10973 0.1993,0.10749 0.32918,0.33142 z m -1.40405,0.87557 q 0,0.45458 0.18586,0.71434 0.1881,0.25752 0.51504,0.25752 0.32694,0 0.51504,-0.25752 0.18811,-0.25976 0.18811,-0.71434 0,-0.45458 -0.18811,-0.7121 -0.1881,-0.25976 -0.51504,-0.25976 -0.32694,0 -0.51504,0.25976 -0.18586,0.25752 -0.18586,0.7121 z"
         style="stroke-width:0.26458332"
         id="path1186" />
      <path
         d="m 194.14169,162.00194 v -1.51826 h 0.41204 v 1.50258 q 0,0.35605 0.13883,0.5352 0.13884,0.1769 0.41652,0.1769 0.33365,0 0.52623,-0.21273 0.19482,-0.21273 0.19482,-0.57998 v -1.42197 h 0.41204 v 2.50803 h -0.41204 v -0.38516 q -0.15003,0.22841 -0.34933,0.34038 -0.19706,0.10972 -0.45906,0.10972 -0.43218,0 -0.65612,-0.26871 -0.22393,-0.26872 -0.22393,-0.786 z m 1.0368,-1.57872 z"
         style="stroke-width:0.26458332"
         id="path1188" />
    </g>
    <rect
       style="fill:#ffffff;fill-opacity:1;stroke:none;stroke-width:0.28499618;stroke-miterlimit:4;stroke-dasharray:none;stroke-dashoffset:0"
       id="rect852-3-1"
       width="45.787991"
       height="4.6298356"
       x="38.311863"
       y="154.50105" />
    <g
       aria-label="pola E i B na siatce"
       style="font-style:normal;font-weight:normal;font-size:4.58611107px;line-height:1.25;font-family:sans-serif;letter-spacing:0px;word-spacing:0px;fill:#000000;fill-opacity:1;stroke:none;stroke-width:0.26458332"
       id="text913-5-5">
      <path
         d="m 40.525041,158.0719 v 1.33015 h -0.414273 v -3.46197 h 0.414273 v 0.38068 q 0.12988,-0.22393 0.326939,-0.33142 0.199299,-0.10973 0.474734,-0.10973 0.45682,0 0.741213,0.36277 0.286632,0.36277 0.286632,0.95395 0,0.59118 -0.286632,0.95395 -0.284393,0.36276 -0.741213,0.36276 -0.275435,0 -0.474734,-0.10748 -0.197059,-0.10973 -0.326939,-0.33366 z m 1.401809,-0.87557 q 0,-0.45458 -0.188102,-0.7121 -0.185863,-0.25976 -0.512803,-0.25976 -0.326939,0 -0.515042,0.25976 -0.185862,0.25752 -0.185862,0.7121 0,0.45458 0.185862,0.71434 0.188103,0.25752 0.515042,0.25752 0.32694,0 0.512803,-0.25752 0.188102,-0.25976 0.188102,-0.71434 z"
         style="stroke-width:0.26458332"
         id="path1202" />
      <path
         d="m 44.00941,156.22895 q -0.331418,0 -0.523999,0.25976 -0.192581,0.25752 -0.192581,0.70762 0,0.4501 0.190342,0.70986 0.192581,0.25752 0.526238,0.25752 0.329179,0 0.52176,-0.25976 0.192581,-0.25976 0.192581,-0.70762 0,-0.44562 -0.192581,-0.70538 -0.192581,-0.262 -0.52176,-0.262 z m 0,-0.34934 q 0.537435,0 0.844221,0.34934 0.306786,0.34933 0.306786,0.96738 0,0.61581 -0.306786,0.96738 -0.306786,0.34933 -0.844221,0.34933 -0.539674,0 -0.84646,-0.34933 -0.304546,-0.35157 -0.304546,-0.96738 0,-0.61805 0.304546,-0.96738 0.306786,-0.34934 0.84646,-0.34934 z"
         style="stroke-width:0.26458332"
         id="path1204" />
      <path
         d="m 45.841168,154.96374 h 0.412033 v 3.48436 h -0.412033 z"
         style="stroke-width:0.26458332"
         id="path1206" />
      <path
         d="m 48.252906,157.18737 q -0.499366,0 -0.691947,0.11421 -0.192581,0.1142 -0.192581,0.38964 0,0.21945 0.143316,0.34933 0.145555,0.12764 0.394119,0.12764 0.342615,0 0.548631,-0.24184 0.208256,-0.24409 0.208256,-0.64717 v -0.0918 z m 0.821828,-0.17019 v 1.43092 H 48.6627 v -0.38068 q -0.141076,0.22841 -0.351572,0.33814 -0.210495,0.10748 -0.515041,0.10748 -0.385162,0 -0.613572,-0.21497 -0.22617,-0.21721 -0.22617,-0.57998 0,-0.42323 0.282153,-0.6382 0.284392,-0.21498 0.84646,-0.21498 H 48.6627 v -0.0403 q 0,-0.28439 -0.188102,-0.4389 -0.185863,-0.15675 -0.523999,-0.15675 -0.214974,0 -0.418751,0.0515 -0.203778,0.0515 -0.39188,0.15451 v -0.38068 q 0.226171,-0.0873 0.438905,-0.12988 0.212735,-0.0448 0.414273,-0.0448 0.544153,0 0.81287,0.28216 0.268718,0.28215 0.268718,0.85541 z"
         style="stroke-width:0.26458332"
         id="path1208" />
      <path
         d="m 51.403619,155.10481 h 2.11391 v 0.38069 H 51.85596 v 0.98977 h 1.592151 v 0.38068 H 51.85596 v 1.21147 h 1.701877 v 0.38068 h -2.154218 z"
         style="stroke-width:0.26458332"
         id="path1210" />
      <path
         d="m 55.747884,155.94008 h 0.412033 v 2.50802 h -0.412033 z m 0,-0.97634 h 0.412033 v 0.52176 h -0.412033 z"
         style="stroke-width:0.26458332"
         id="path1212" />
      <path
         d="m 58.9501,156.85148 v 1.2249 h 0.725537 q 0.365008,0 0.539674,-0.15003 0.176906,-0.15228 0.176906,-0.46354 0,-0.31351 -0.176906,-0.4613 -0.174666,-0.15003 -0.539674,-0.15003 z m 0,-1.37494 v 1.00769 h 0.669554 q 0.331418,0 0.492649,-0.12316 0.163469,-0.12541 0.163469,-0.38069 0,-0.25304 -0.163469,-0.37844 -0.161231,-0.1254 -0.492649,-0.1254 z m -0.452341,-0.37173 h 1.155485 q 0.517281,0 0.797195,0.21498 0.279914,0.21497 0.279914,0.61133 0,0.30678 -0.143316,0.48817 -0.143316,0.18138 -0.420991,0.22617 0.333658,0.0717 0.517281,0.30007 0.185863,0.22617 0.185863,0.56654 0,0.44786 -0.304546,0.69195 -0.304547,0.24408 -0.866614,0.24408 h -1.200271 z"
         style="stroke-width:0.26458332"
         id="path1214" />
      <path
         d="m 65.168671,156.93433 v 1.51377 h -0.412034 v -1.50033 q 0,-0.35605 -0.138837,-0.53296 -0.138838,-0.17691 -0.416512,-0.17691 -0.333658,0 -0.526239,0.21274 -0.19258,0.21273 -0.19258,0.57998 v 1.41748 h -0.414273 v -2.50802 h 0.414273 v 0.38964 q 0.147794,-0.22617 0.347093,-0.33814 0.201538,-0.11197 0.463538,-0.11197 0.432187,0 0.653879,0.26872 0.221692,0.26648 0.221692,0.786 z"
         style="stroke-width:0.26458332"
         id="path1216" />
      <path
         d="m 67.134785,157.18737 q -0.499367,0 -0.691947,0.11421 -0.192581,0.1142 -0.192581,0.38964 0,0.21945 0.143316,0.34933 0.145555,0.12764 0.394119,0.12764 0.342614,0 0.548631,-0.24184 0.208256,-0.24409 0.208256,-0.64717 v -0.0918 z m 0.821828,-0.17019 v 1.43092 h -0.412034 v -0.38068 q -0.141076,0.22841 -0.351572,0.33814 -0.210495,0.10748 -0.515042,0.10748 -0.385161,0 -0.613571,-0.21497 -0.226171,-0.21721 -0.226171,-0.57998 0,-0.42323 0.282154,-0.6382 0.284392,-0.21498 0.84646,-0.21498 h 0.577742 v -0.0403 q 0,-0.28439 -0.188102,-0.4389 -0.185863,-0.15675 -0.523999,-0.15675 -0.214974,0 -0.418751,0.0515 -0.203778,0.0515 -0.39188,0.15451 v -0.38068 q 0.22617,-0.0873 0.438905,-0.12988 0.212735,-0.0448 0.414273,-0.0448 0.544153,0 0.81287,0.28216 0.268718,0.28215 0.268718,0.85541 z"
         style="stroke-width:0.26458332"
         id="path1218" />
      <path
         d="m 71.866452,156.01397 v 0.38964 q -0.174667,-0.0896 -0.362769,-0.13436 -0.188102,-0.0448 -0.38964,-0.0448 -0.306786,0 -0.461298,0.0941 -0.152274,0.094 -0.152274,0.28215 0,0.14332 0.109727,0.22617 0.109726,0.0806 0.441144,0.15452 l 0.141077,0.0314 q 0.438905,0.0941 0.622529,0.26647 0.185863,0.17019 0.185863,0.47698 0,0.34933 -0.277675,0.55311 -0.275436,0.20377 -0.759127,0.20377 -0.201538,0 -0.420991,-0.0403 -0.217213,-0.0381 -0.459059,-0.11645 v -0.42547 q 0.22841,0.11869 0.450102,0.17915 0.221692,0.0582 0.438905,0.0582 0.291111,0 0.447863,-0.0985 0.156752,-0.10077 0.156752,-0.28215 0,-0.16795 -0.114205,-0.25752 -0.111966,-0.0896 -0.494888,-0.17243 l -0.143316,-0.0336 q -0.382923,-0.0806 -0.55311,-0.24632 -0.170188,-0.16795 -0.170188,-0.45906 0,-0.35381 0.250803,-0.5464 0.250803,-0.19258 0.712101,-0.19258 0.22841,0 0.429948,0.0336 0.201538,0.0336 0.371726,0.10077 z"
         style="stroke-width:0.26458332"
         id="path1220" />
      <path
         d="m 72.659169,155.94008 h 0.412034 v 2.50802 h -0.412034 z m 0,-0.97634 h 0.412034 v 0.52176 h -0.412034 z"
         style="stroke-width:0.26458332"
         id="path1222" />
      <path
         d="m 75.070906,157.18737 q -0.499367,0 -0.691947,0.11421 -0.192581,0.1142 -0.192581,0.38964 0,0.21945 0.143316,0.34933 0.145555,0.12764 0.394119,0.12764 0.342614,0 0.548631,-0.24184 0.208256,-0.24409 0.208256,-0.64717 v -0.0918 z m 0.821828,-0.17019 v 1.43092 H 75.4807 v -0.38068 q -0.141077,0.22841 -0.351572,0.33814 -0.210495,0.10748 -0.515042,0.10748 -0.385161,0 -0.613571,-0.21497 -0.226171,-0.21721 -0.226171,-0.57998 0,-0.42323 0.282154,-0.6382 0.284392,-0.21498 0.84646,-0.21498 H 75.4807 v -0.0403 q 0,-0.28439 -0.188102,-0.4389 -0.185863,-0.15675 -0.523999,-0.15675 -0.214974,0 -0.418751,0.0515 -0.203778,0.0515 -0.39188,0.15451 v -0.38068 q 0.22617,-0.0873 0.438905,-0.12988 0.212735,-0.0448 0.414273,-0.0448 0.544153,0 0.81287,0.28216 0.268718,0.28215 0.268718,0.85541 z"
         style="stroke-width:0.26458332"
         id="path1224" />
      <path
         d="m 77.151227,155.22797 v 0.71211 h 0.8487 v 0.32022 h -0.8487 v 1.3615 q 0,0.30678 0.08285,0.39412 0.08509,0.0873 0.342615,0.0873 h 0.42323 v 0.34485 h -0.42323 q -0.476974,0 -0.658358,-0.1769 -0.181384,-0.17915 -0.181384,-0.6494 v -1.3615 h -0.302308 v -0.32022 h 0.302308 v -0.71211 z"
         style="stroke-width:0.26458332"
         id="path1226" />
      <path
         d="m 80.348965,156.03637 v 0.38516 q -0.174666,-0.0963 -0.351572,-0.14332 -0.174666,-0.0493 -0.353811,-0.0493 -0.400837,0 -0.622529,0.25528 -0.221692,0.25304 -0.221692,0.7121 0,0.45906 0.221692,0.71434 0.221692,0.25304 0.622529,0.25304 0.179145,0 0.353811,-0.047 0.176906,-0.0493 0.351572,-0.14556 v 0.38068 q -0.172427,0.0806 -0.358289,0.12093 -0.183624,0.0403 -0.39188,0.0403 -0.566546,0 -0.900204,-0.35605 -0.333657,-0.35605 -0.333657,-0.96066 0,-0.61357 0.335897,-0.96514 0.338136,-0.35158 0.924836,-0.35158 0.190341,0 0.371725,0.0403 0.181385,0.0381 0.351572,0.11645 z"
         style="stroke-width:0.26458332"
         id="path1228" />
      <path
         d="m 83.215285,157.09108 v 0.20154 h -1.894458 q 0.02687,0.42547 0.255281,0.6494 0.230649,0.22169 0.640443,0.22169 0.237368,0 0.459059,-0.0582 0.223932,-0.0582 0.443384,-0.17467 v 0.38964 q -0.221692,0.0941 -0.45458,0.14332 -0.232889,0.0493 -0.472495,0.0493 -0.600136,0 -0.951708,-0.34933 -0.349332,-0.34933 -0.349332,-0.94499 0,-0.61581 0.331418,-0.97634 0.333657,-0.36277 0.897964,-0.36277 0.506085,0 0.799434,0.32694 0.29559,0.3247 0.29559,0.88453 z m -0.412034,-0.12092 q -0.0045,-0.33814 -0.190341,-0.53968 -0.183624,-0.20153 -0.48817,-0.20153 -0.344854,0 -0.55311,0.19482 -0.206017,0.19482 -0.237367,0.54863 z"
         style="stroke-width:0.26458332"
         id="path1230" />
    </g>
    <rect
       style="fill:#ffffff;fill-opacity:1;stroke:none;stroke-width:0.28499618;stroke-miterlimit:4;stroke-dasharray:none;stroke-dashoffset:0"
       id="rect852-3-1-2"
       width="75.989441"
       height="5.9661832"
       x="20.805708"
       y="72.716599" />
    <g
       aria-label="pola E i B w położeniach cząstek"
       style="font-style:normal;font-weight:normal;font-size:4.58611107px;line-height:1.25;font-family:sans-serif;letter-spacing:0px;word-spacing:0px;fill:#000000;fill-opacity:1;stroke:none;stroke-width:0.26458332"
       id="text913-5-5-2">
      <path
         d="m 23.096259,76.455064 v 1.330151 h -0.414273 v -3.461976 h 0.414273 v 0.380683 q 0.12988,-0.223931 0.32694,-0.331418 0.199298,-0.109727 0.474734,-0.109727 0.456819,0 0.741212,0.362769 0.286632,0.362768 0.286632,0.953947 0,0.591178 -0.286632,0.953947 -0.284393,0.362768 -0.741212,0.362768 -0.275436,0 -0.474734,-0.107487 -0.19706,-0.109726 -0.32694,-0.333657 z m 1.401809,-0.875571 q 0,-0.45458 -0.188102,-0.712101 -0.185863,-0.259761 -0.512802,-0.259761 -0.32694,0 -0.515042,0.259761 -0.185863,0.257521 -0.185863,0.712101 0,0.45458 0.185863,0.71434 0.188102,0.257521 0.515042,0.257521 0.326939,0 0.512802,-0.257521 0.188102,-0.25976 0.188102,-0.71434 z"
         style="stroke-width:0.26458332"
         id="path1056" />
      <path
         d="m 26.580629,74.61211 q -0.331419,0 -0.523999,0.25976 -0.192581,0.257521 -0.192581,0.707623 0,0.450102 0.190341,0.709862 0.192581,0.257521 0.526239,0.257521 0.329178,0 0.521759,-0.259761 0.192581,-0.25976 0.192581,-0.707622 0,-0.445623 -0.192581,-0.705383 -0.192581,-0.262 -0.521759,-0.262 z m 0,-0.349333 q 0.537434,0 0.84422,0.349333 0.306786,0.349333 0.306786,0.967383 0,0.615811 -0.306786,0.967383 -0.306786,0.349332 -0.84422,0.349332 -0.539675,0 -0.84646,-0.349332 -0.304547,-0.351572 -0.304547,-0.967383 0,-0.61805 0.304547,-0.967383 0.306785,-0.349333 0.84646,-0.349333 z"
         style="stroke-width:0.26458332"
         id="path1058" />
      <path
         d="m 28.412386,73.346899 h 0.412034 v 3.484369 h -0.412034 z"
         style="stroke-width:0.26458332"
         id="path1060" />
      <path
         d="m 30.824125,75.570536 q -0.499367,0 -0.691948,0.114205 -0.192581,0.114204 -0.192581,0.38964 0,0.219452 0.143316,0.349333 0.145556,0.12764 0.394119,0.12764 0.342615,0 0.548632,-0.241845 0.208256,-0.244085 0.208256,-0.647162 v -0.09181 z m 0.821827,-0.170188 v 1.43092 h -0.412033 v -0.380683 q -0.141077,0.22841 -0.351572,0.338136 -0.210496,0.107487 -0.515042,0.107487 -0.385162,0 -0.613571,-0.214974 -0.226171,-0.217213 -0.226171,-0.579981 0,-0.42323 0.282153,-0.638204 0.284393,-0.214974 0.84646,-0.214974 h 0.577743 v -0.04031 q 0,-0.284393 -0.188102,-0.438905 -0.185863,-0.156752 -0.523999,-0.156752 -0.214974,0 -0.418752,0.0515 -0.203777,0.0515 -0.391879,0.154513 v -0.380683 q 0.22617,-0.08733 0.438905,-0.12988 0.212734,-0.04479 0.414273,-0.04479 0.544152,0 0.81287,0.282154 0.268717,0.282153 0.268717,0.855417 z"
         style="stroke-width:0.26458332"
         id="path1062" />
      <path
         d="m 33.974837,73.487975 h 2.113911 v 0.380683 h -1.66157 v 0.989776 h 1.592151 v 0.380683 h -1.592151 v 1.211468 h 1.701877 v 0.380683 h -2.154218 z"
         style="stroke-width:0.26458332"
         id="path1064" />
      <path
         d="m 38.319102,74.323239 h 0.412034 v 2.508029 h -0.412034 z m 0,-0.97634 h 0.412034 v 0.521759 h -0.412034 z"
         style="stroke-width:0.26458332"
         id="path1066" />
      <path
         d="m 41.521318,75.234639 v 1.224904 h 0.725537 q 0.365008,0 0.539675,-0.150034 0.176905,-0.152274 0.176905,-0.463538 0,-0.313504 -0.176905,-0.461298 -0.174667,-0.150034 -0.539675,-0.150034 z m 0,-1.374938 v 1.007691 h 0.669555 q 0.331418,0 0.492648,-0.123163 0.16347,-0.125401 0.16347,-0.380683 0,-0.253042 -0.16347,-0.378443 -0.16123,-0.125402 -0.492648,-0.125402 z m -0.452341,-0.371726 h 1.155485 q 0.517281,0 0.797195,0.214974 0.279914,0.214974 0.279914,0.611333 0,0.306785 -0.143316,0.48817 -0.143316,0.181384 -0.42099,0.22617 0.333657,0.07166 0.517281,0.300068 0.185863,0.22617 0.185863,0.566546 0,0.447862 -0.304547,0.691947 -0.304546,0.244085 -0.866614,0.244085 h -1.200271 z"
         style="stroke-width:0.26458332"
         id="path1068" />
      <path
         d="m 45.415483,74.323239 h 0.412034 l 0.515041,1.957159 0.512803,-1.957159 h 0.48593 l 0.515042,1.957159 0.512803,-1.957159 h 0.412033 l -0.656118,2.508029 H 47.63912 l -0.539674,-2.055688 -0.541914,2.055688 h -0.48593 z"
         style="stroke-width:0.26458332"
         id="path1070" />
      <path
         d="m 51.266805,76.455064 v 1.330151 h -0.414273 v -3.461976 h 0.414273 v 0.380683 q 0.12988,-0.223931 0.326939,-0.331418 0.199299,-0.109727 0.474734,-0.109727 0.45682,0 0.741213,0.362769 0.286632,0.362768 0.286632,0.953947 0,0.591178 -0.286632,0.953947 -0.284393,0.362768 -0.741213,0.362768 -0.275435,0 -0.474734,-0.107487 -0.197059,-0.109726 -0.326939,-0.333657 z m 1.401809,-0.875571 q 0,-0.45458 -0.188102,-0.712101 -0.185863,-0.259761 -0.512803,-0.259761 -0.326939,0 -0.515041,0.259761 -0.185863,0.257521 -0.185863,0.712101 0,0.45458 0.185863,0.71434 0.188102,0.257521 0.515041,0.257521 0.32694,0 0.512803,-0.257521 0.188102,-0.25976 0.188102,-0.71434 z"
         style="stroke-width:0.26458332"
         id="path1072" />
      <path
         d="m 54.751175,74.61211 q -0.331419,0 -0.523999,0.25976 -0.192581,0.257521 -0.192581,0.707623 0,0.450102 0.190341,0.709862 0.192581,0.257521 0.526239,0.257521 0.329179,0 0.521759,-0.259761 0.192581,-0.25976 0.192581,-0.707622 0,-0.445623 -0.192581,-0.705383 -0.19258,-0.262 -0.521759,-0.262 z m 0,-0.349333 q 0.537435,0 0.84422,0.349333 0.306786,0.349333 0.306786,0.967383 0,0.615811 -0.306786,0.967383 -0.306785,0.349332 -0.84422,0.349332 -0.539675,0 -0.84646,-0.349332 -0.304547,-0.351572 -0.304547,-0.967383 0,-0.61805 0.304547,-0.967383 0.306785,-0.349333 0.84646,-0.349333 z"
         style="stroke-width:0.26458332"
         id="path1074" />
      <path
         d="M 56.596367,73.346899 H 57.0084 v 1.348066 l 0.279914,-0.201538 0.170188,0.237367 -0.450102,0.315743 v 1.784731 h -0.412033 v -1.491382 l -0.275436,0.19706 -0.165709,-0.237367 0.441145,-0.315743 z"
         style="stroke-width:0.26458332"
         id="path1076" />
      <path
         d="m 58.86255,74.61211 q -0.331418,0 -0.523999,0.25976 -0.19258,0.257521 -0.19258,0.707623 0,0.450102 0.190341,0.709862 0.192581,0.257521 0.526238,0.257521 0.329179,0 0.52176,-0.259761 0.192581,-0.25976 0.192581,-0.707622 0,-0.445623 -0.192581,-0.705383 -0.192581,-0.262 -0.52176,-0.262 z m 0,-0.349333 q 0.537435,0 0.844221,0.349333 0.306786,0.349333 0.306786,0.967383 0,0.615811 -0.306786,0.967383 -0.306786,0.349332 -0.844221,0.349332 -0.539674,0 -0.846459,-0.349332 -0.304547,-0.351572 -0.304547,-0.967383 0,-0.61805 0.304547,-0.967383 0.306785,-0.349333 0.846459,-0.349333 z"
         style="stroke-width:0.26458332"
         id="path1078" />
      <path
         d="m 61.249658,73.346899 h 0.412033 v 0.521759 h -0.412033 z m 0.210495,0.915878 z m -0.94499,0.06046 h 1.957159 v 0.376204 l -1.549604,1.802646 h 1.549604 v 0.329179 h -2.013141 v -0.376204 l 1.549604,-1.802646 h -1.493622 z"
         style="stroke-width:0.26458332"
         id="path1080" />
      <path
         d="m 65.249069,75.474245 v 0.201538 h -1.894458 q 0.02687,0.42547 0.255282,0.649401 0.230649,0.221692 0.640443,0.221692 0.237367,0 0.459059,-0.05822 0.223931,-0.05822 0.443384,-0.174667 v 0.389641 q -0.221692,0.09405 -0.45458,0.143315 -0.232889,0.04927 -0.472495,0.04927 -0.600136,0 -0.951708,-0.349332 -0.349332,-0.349333 -0.349332,-0.94499 0,-0.615811 0.331418,-0.97634 0.333657,-0.362769 0.897964,-0.362769 0.506084,0 0.799434,0.32694 0.295589,0.3247 0.295589,0.884528 z m -0.412033,-0.120923 q -0.0045,-0.338136 -0.190341,-0.539674 -0.183624,-0.201538 -0.48817,-0.201538 -0.344855,0 -0.553111,0.19482 -0.206016,0.19482 -0.237367,0.548632 z"
         style="stroke-width:0.26458332"
         id="path1082" />
      <path
         d="m 68.010141,75.317493 v 1.513775 h -0.412033 v -1.500339 q 0,-0.35605 -0.138837,-0.532956 -0.138838,-0.176906 -0.416513,-0.176906 -0.333657,0 -0.526238,0.212735 -0.192581,0.212735 -0.192581,0.579982 v 1.417484 h -0.414272 v -2.508029 h 0.414272 v 0.38964 q 0.147795,-0.22617 0.347094,-0.338136 0.201538,-0.111966 0.463537,-0.111966 0.432187,0 0.653879,0.268718 0.221692,0.266478 0.221692,0.785998 z"
         style="stroke-width:0.26458332"
         id="path1084" />
      <path
         d="m 68.836448,74.323239 h 0.412033 v 2.508029 h -0.412033 z m 0,-0.97634 h 0.412033 v 0.521759 h -0.412033 z"
         style="stroke-width:0.26458332"
         id="path1086" />
      <path
         d="m 71.248185,75.570536 q -0.499367,0 -0.691948,0.114205 -0.192581,0.114204 -0.192581,0.38964 0,0.219452 0.143316,0.349333 0.145556,0.12764 0.394119,0.12764 0.342615,0 0.548632,-0.241845 0.208256,-0.244085 0.208256,-0.647162 v -0.09181 z m 0.821827,-0.170188 v 1.43092 h -0.412033 v -0.380683 q -0.141077,0.22841 -0.351572,0.338136 -0.210496,0.107487 -0.515042,0.107487 -0.385162,0 -0.613572,-0.214974 -0.22617,-0.217213 -0.22617,-0.579981 0,-0.42323 0.282153,-0.638204 0.284393,-0.214974 0.84646,-0.214974 h 0.577743 v -0.04031 q 0,-0.284393 -0.188103,-0.438905 -0.185862,-0.156752 -0.523999,-0.156752 -0.214974,0 -0.418751,0.0515 -0.203777,0.0515 -0.39188,0.154513 v -0.380683 q 0.226171,-0.08733 0.438906,-0.12988 0.212734,-0.04479 0.414272,-0.04479 0.544153,0 0.812871,0.282154 0.268717,0.282153 0.268717,0.855417 z"
         style="stroke-width:0.26458332"
         id="path1088" />
      <path
         d="m 74.725837,74.419529 v 0.385162 q -0.174667,-0.09629 -0.351572,-0.143316 -0.174667,-0.04927 -0.353812,-0.04927 -0.400837,0 -0.622529,0.255282 -0.221691,0.253042 -0.221691,0.712101 0,0.459059 0.221691,0.71434 0.221692,0.253043 0.622529,0.253043 0.179145,0 0.353812,-0.04703 0.176905,-0.04926 0.351572,-0.145555 v 0.380683 q -0.172427,0.08062 -0.35829,0.120923 -0.183624,0.04031 -0.39188,0.04031 -0.566546,0 -0.900203,-0.35605 -0.333658,-0.356051 -0.333658,-0.960665 0,-0.613572 0.335897,-0.965144 0.338136,-0.351572 0.924836,-0.351572 0.190341,0 0.371726,0.04031 0.181384,0.03807 0.351572,0.116444 z"
         style="stroke-width:0.26458332"
         id="path1090" />
      <path
         d="m 77.531694,75.317493 v 1.513775 h -0.412033 v -1.500339 q 0,-0.35605 -0.138837,-0.532956 -0.138838,-0.176906 -0.416512,-0.176906 -0.333658,0 -0.526239,0.212735 -0.192581,0.212735 -0.192581,0.579982 v 1.417484 H 75.43122 v -3.484369 h 0.414272 v 1.36598 q 0.147795,-0.22617 0.347094,-0.338136 0.201538,-0.111966 0.463537,-0.111966 0.432188,0 0.653879,0.268718 0.221692,0.266478 0.221692,0.785998 z"
         style="stroke-width:0.26458332"
         id="path1092" />
      <path
         d="m 81.62292,74.419529 v 0.385162 q -0.174667,-0.09629 -0.351572,-0.143316 -0.174667,-0.04927 -0.353811,-0.04927 -0.400837,0 -0.622529,0.255282 -0.221692,0.253042 -0.221692,0.712101 0,0.459059 0.221692,0.71434 0.221692,0.253043 0.622529,0.253043 0.179144,0 0.353811,-0.04703 0.176905,-0.04926 0.351572,-0.145555 v 0.380683 q -0.172427,0.08062 -0.35829,0.120923 -0.183624,0.04031 -0.39188,0.04031 -0.566546,0 -0.900203,-0.35605 -0.333658,-0.356051 -0.333658,-0.960665 0,-0.613572 0.335897,-0.965144 0.338136,-0.351572 0.924836,-0.351572 0.190342,0 0.371726,0.04031 0.181384,0.03807 0.351572,0.116444 z"
         style="stroke-width:0.26458332"
         id="path1094" />
      <path
         d="m 82.164833,74.323239 h 1.957159 v 0.376204 l -1.549604,1.802646 h 1.549604 v 0.329179 H 82.10885 v -0.376204 l 1.549604,-1.802646 h -1.493621 z"
         style="stroke-width:0.26458332"
         id="path1096" />
      <path
         d="m 85.893288,75.570536 q -0.499367,0 -0.691947,0.114205 -0.192581,0.114204 -0.192581,0.38964 0,0.219452 0.143316,0.349333 0.145555,0.12764 0.394119,0.12764 0.342614,0 0.548631,-0.241845 0.208256,-0.244085 0.208256,-0.647162 v -0.09181 z m 0.821828,-0.170188 v 1.43092 h -0.412034 v -0.380683 q -0.141077,0.22841 -0.351572,0.338136 -0.210495,0.107487 -0.515042,0.107487 -0.385161,0 -0.613571,-0.214974 -0.226171,-0.217213 -0.226171,-0.579981 0,-0.42323 0.282154,-0.638204 0.284392,-0.214974 0.84646,-0.214974 h 0.577742 v -0.04031 q 0,-0.284393 -0.188102,-0.438905 -0.185863,-0.156752 -0.523999,-0.156752 -0.214974,0 -0.418751,0.0515 -0.203778,0.0515 -0.39188,0.154513 v -0.380683 q 0.22617,-0.08733 0.438905,-0.12988 0.212735,-0.04479 0.414273,-0.04479 0.544153,0 0.81287,0.282154 0.268718,0.282153 0.268718,0.855417 z m -0.407555,1.43092 h 0.266478 q -0.100769,0.136598 -0.150034,0.235128 -0.04703,0.09853 -0.04703,0.167948 0,0.103009 0.06046,0.154513 0.0627,0.0515 0.183623,0.0515 0.07166,0 0.141077,-0.01791 0.06942,-0.01568 0.138837,-0.04927 v 0.297828 q -0.08509,0.02239 -0.16123,0.03359 -0.07614,0.0112 -0.143316,0.0112 -0.273196,0 -0.403076,-0.09853 -0.127641,-0.09629 -0.127641,-0.304547 0,-0.107487 0.05822,-0.22617 0.06046,-0.116444 0.183624,-0.255282 z"
         style="stroke-width:0.26458332"
         id="path1098" />
      <path
         d="m 89.164923,74.397136 v 0.38964 q -0.174666,-0.08957 -0.362768,-0.134358 -0.188102,-0.04479 -0.389641,-0.04479 -0.306785,0 -0.461298,0.09405 -0.152273,0.09405 -0.152273,0.282153 0,0.143316 0.109726,0.22617 0.109727,0.08062 0.441145,0.154513 l 0.141076,0.03135 q 0.438906,0.09405 0.622529,0.266478 0.185863,0.170188 0.185863,0.476974 0,0.349333 -0.277675,0.55311 -0.275435,0.203777 -0.759126,0.203777 -0.201539,0 -0.420991,-0.04031 -0.217213,-0.03807 -0.459059,-0.116444 v -0.42547 q 0.22841,0.118684 0.450102,0.179145 0.221692,0.05822 0.438905,0.05822 0.29111,0 0.447862,-0.09853 0.156752,-0.100769 0.156752,-0.282154 0,-0.167948 -0.114205,-0.257521 -0.111965,-0.08957 -0.494888,-0.172427 l -0.143316,-0.03359 q -0.382922,-0.08062 -0.55311,-0.246325 -0.170188,-0.167948 -0.170188,-0.459059 0,-0.353811 0.250803,-0.546392 0.250803,-0.192581 0.712102,-0.192581 0.228409,0 0.429947,0.03359 0.201539,0.03359 0.371726,0.100769 z"
         style="stroke-width:0.26458332"
         id="path1100" />
      <path
         d="m 90.365196,73.611138 v 0.712101 h 0.848699 v 0.320221 h -0.848699 v 1.361502 q 0,0.306786 0.08285,0.394119 0.08509,0.08733 0.342615,0.08733 h 0.42323 v 0.344854 h -0.42323 q -0.476974,0 -0.658358,-0.176905 -0.181384,-0.179145 -0.181384,-0.649401 V 74.64346 h -0.302307 v -0.320221 h 0.302307 v -0.712101 z"
         style="stroke-width:0.26458332"
         id="path1102" />
      <path
         d="m 93.903309,75.474245 v 0.201538 h -1.894458 q 0.02687,0.42547 0.255282,0.649401 0.230649,0.221692 0.640443,0.221692 0.237367,0 0.459059,-0.05822 0.223931,-0.05822 0.443384,-0.174667 v 0.389641 q -0.221692,0.09405 -0.454581,0.143315 -0.232888,0.04927 -0.472494,0.04927 -0.600136,0 -0.951708,-0.349332 -0.349333,-0.349333 -0.349333,-0.94499 0,-0.615811 0.331418,-0.97634 0.333658,-0.362769 0.897965,-0.362769 0.506084,0 0.799434,0.32694 0.295589,0.3247 0.295589,0.884528 z m -0.412033,-0.120923 q -0.0045,-0.338136 -0.190342,-0.539674 -0.183623,-0.201538 -0.48817,-0.201538 -0.344854,0 -0.55311,0.19482 -0.206017,0.19482 -0.237367,0.548632 z"
         style="stroke-width:0.26458332"
         id="path1104" />
      <path
         d="m 94.563906,73.346899 h 0.414273 v 2.057928 l 1.229382,-1.081588 H 96.7338 l -1.330152,1.173399 1.386134,1.33463 h -0.537434 l -1.274169,-1.224903 v 1.224903 h -0.414273 z"
         style="stroke-width:0.26458332"
         id="path1106" />
    </g>
  </g>
</svg>
