<?xml version="1.0" encoding="UTF-8" standalone="no"?>
<!-- Created with Inkscape (http://www.inkscape.org/) -->

<svg
   xmlns:dc="http://purl.org/dc/elements/1.1/"
   xmlns:cc="http://creativecommons.org/ns#"
   xmlns:rdf="http://www.w3.org/1999/02/22-rdf-syntax-ns#"
   xmlns:svg="http://www.w3.org/2000/svg"
   xmlns="http://www.w3.org/2000/svg"
   xmlns:sodipodi="http://sodipodi.sourceforge.net/DTD/sodipodi-0.dtd"
   xmlns:inkscape="http://www.inkscape.org/namespaces/inkscape"
   width="181.82365mm"
   height="142.11505mm"
   viewBox="0 0 181.82365 142.11505"
   version="1.1"
   id="svg1277"
   sodipodi:docname="push.svg"
   inkscape:version="0.92.4 5da689c313, 2019-01-14">
  <defs
     id="defs1271">
    <marker
       inkscape:stockid="Arrow1Lend"
       orient="auto"
       refY="0"
       refX="0"
       id="marker2179"
       style="overflow:visible"
       inkscape:isstock="true">
      <path
         id="path2177"
         d="M 0,0 5,-5 -12.5,0 5,5 Z"
         style="fill:#000000;fill-opacity:1;fill-rule:evenodd;stroke:#000000;stroke-width:1.00000003pt;stroke-opacity:1"
         transform="matrix(-0.8,0,0,-0.8,-10,0)"
         inkscape:connector-curvature="0" />
    </marker>
    <marker
       inkscape:stockid="Arrow1Lend"
       orient="auto"
       refY="0"
       refX="0"
       id="Arrow1Lend"
       style="overflow:visible"
       inkscape:isstock="true">
      <path
         id="path1831"
         d="M 0,0 5,-5 -12.5,0 5,5 Z"
         style="fill:#000000;fill-opacity:1;fill-rule:evenodd;stroke:#000000;stroke-width:1.00000003pt;stroke-opacity:1"
         transform="matrix(-0.8,0,0,-0.8,-10,0)"
         inkscape:connector-curvature="0" />
    </marker>
    <marker
       inkscape:stockid="Arrow2Lend"
       orient="auto"
       refY="0"
       refX="0"
       id="Arrow2Lend"
       style="overflow:visible"
       inkscape:isstock="true">
      <path
         id="path1849"
         style="fill:#000000;fill-opacity:1;fill-rule:evenodd;stroke:#000000;stroke-width:0.625;stroke-linejoin:round;stroke-opacity:1"
         d="M 8.7185878,4.0337352 -2.2072895,0.01601326 8.7185884,-4.0017078 c -1.7454984,2.3720609 -1.7354408,5.6174519 -6e-7,8.035443 z"
         transform="matrix(-1.1,0,0,-1.1,-1.1,0)"
         inkscape:connector-curvature="0" />
    </marker>
    <marker
       inkscape:stockid="Arrow1Lend"
       orient="auto"
       refY="0"
       refX="0"
       id="marker2179-0"
       style="overflow:visible"
       inkscape:isstock="true">
      <path
         id="path2177-9"
         d="M 0,0 5,-5 -12.5,0 5,5 Z"
         style="fill:#000000;fill-opacity:1;fill-rule:evenodd;stroke:#000000;stroke-width:1.00000003pt;stroke-opacity:1"
         transform="matrix(-0.8,0,0,-0.8,-10,0)"
         inkscape:connector-curvature="0" />
    </marker>
    <filter
       inkscape:collect="always"
       style="color-interpolation-filters:sRGB"
       id="filter3675"
       x="-0.047424927"
       width="1.0948499"
       y="-0.052220704"
       height="1.1044414">
      <feGaussianBlur
         inkscape:collect="always"
         stdDeviation="0.7319577"
         id="feGaussianBlur3677" />
    </filter>
    <filter
       inkscape:collect="always"
       style="color-interpolation-filters:sRGB"
       id="filter3679"
       x="-0.047668133"
       width="1.0953363"
       y="-0.05251574"
       height="1.1050315">
      <feGaussianBlur
         inkscape:collect="always"
         stdDeviation="0.7319577"
         id="feGaussianBlur3681" />
    </filter>
    <filter
       inkscape:collect="always"
       style="color-interpolation-filters:sRGB"
       id="filter3683"
       x="-0.099007383"
       width="1.1980148"
       y="-0.18399109"
       height="1.3679822">
      <feGaussianBlur
         inkscape:collect="always"
         stdDeviation="0.7319577"
         id="feGaussianBlur3685" />
    </filter>
    <filter
       inkscape:collect="always"
       style="color-interpolation-filters:sRGB"
       id="filter3687"
       x="-0.2297526"
       width="1.4595052"
       y="-0.18399103"
       height="1.3679821">
      <feGaussianBlur
         inkscape:collect="always"
         stdDeviation="0.7319577"
         id="feGaussianBlur3689" />
    </filter>
    <filter
       inkscape:collect="always"
       style="color-interpolation-filters:sRGB"
       id="filter3691"
       x="-0.21758369"
       width="1.4351674"
       y="-0.26848493"
       height="1.5369699">
      <feGaussianBlur
         inkscape:collect="always"
         stdDeviation="0.7319577"
         id="feGaussianBlur3693" />
    </filter>
    <filter
       inkscape:collect="always"
       style="color-interpolation-filters:sRGB"
       id="filter3695"
       x="-0.11065818"
       width="1.2213164"
       y="-0.11065817"
       height="1.2213163">
      <feGaussianBlur
         inkscape:collect="always"
         stdDeviation="0.7319577"
         id="feGaussianBlur3697" />
    </filter>
    <filter
       inkscape:collect="always"
       style="color-interpolation-filters:sRGB"
       id="filter3699"
       x="-0.10814979"
       width="1.2162996"
       y="-0.17294558"
       height="1.3458912">
      <feGaussianBlur
         inkscape:collect="always"
         stdDeviation="0.7319577"
         id="feGaussianBlur3701" />
    </filter>
    <filter
       inkscape:collect="always"
       style="color-interpolation-filters:sRGB"
       id="filter3703"
       x="-0.14577269"
       width="1.2915454"
       y="-0.21447425"
       height="1.4289485">
      <feGaussianBlur
         inkscape:collect="always"
         stdDeviation="0.7319577"
         id="feGaussianBlur3705" />
    </filter>
    <filter
       inkscape:collect="always"
       style="color-interpolation-filters:sRGB"
       id="filter3707"
       x="-0.11065818"
       width="1.2213164"
       y="-0.11065818"
       height="1.2213164">
      <feGaussianBlur
         inkscape:collect="always"
         stdDeviation="0.7319577"
         id="feGaussianBlur3709" />
    </filter>
    <filter
       inkscape:collect="always"
       style="color-interpolation-filters:sRGB"
       id="filter3683-1"
       x="-0.099007383"
       width="1.1980149"
       y="-0.18399109"
       height="1.3679821">
      <feGaussianBlur
         inkscape:collect="always"
         stdDeviation="0.7319577"
         id="feGaussianBlur3685-2" />
    </filter>
    <filter
       inkscape:collect="always"
       style="color-interpolation-filters:sRGB"
       id="filter3687-9"
       x="-0.2297526"
       width="1.4595052"
       y="-0.18399103"
       height="1.3679821">
      <feGaussianBlur
         inkscape:collect="always"
         stdDeviation="0.7319577"
         id="feGaussianBlur3689-3" />
    </filter>
    <filter
       inkscape:collect="always"
       style="color-interpolation-filters:sRGB"
       id="filter3691-9"
       x="-0.21758369"
       width="1.4351674"
       y="-0.26848492"
       height="1.5369699">
      <feGaussianBlur
         inkscape:collect="always"
         stdDeviation="0.7319577"
         id="feGaussianBlur3693-0" />
    </filter>
    <filter
       inkscape:collect="always"
       style="color-interpolation-filters:sRGB"
       id="filter3695-8"
       x="-0.11065818"
       width="1.2213165"
       y="-0.11065817"
       height="1.2213163">
      <feGaussianBlur
         inkscape:collect="always"
         stdDeviation="0.7319577"
         id="feGaussianBlur3697-8" />
    </filter>
    <marker
       inkscape:stockid="Arrow1Lend"
       orient="auto"
       refY="0"
       refX="0"
       id="marker2179-0-5"
       style="overflow:visible"
       inkscape:isstock="true">
      <path
         id="path2177-9-0"
         d="M 0,0 5,-5 -12.5,0 5,5 Z"
         style="fill:#000000;fill-opacity:1;fill-rule:evenodd;stroke:#000000;stroke-width:1.00000003pt;stroke-opacity:1"
         transform="matrix(-0.8,0,0,-0.8,-10,0)"
         inkscape:connector-curvature="0" />
    </marker>
    <filter
       inkscape:collect="always"
       style="color-interpolation-filters:sRGB"
       id="filter3675-9"
       x="-0.047424927"
       width="1.0948499"
       y="-0.052220702"
       height="1.1044414">
      <feGaussianBlur
         inkscape:collect="always"
         stdDeviation="0.7319577"
         id="feGaussianBlur3677-6" />
    </filter>
    <filter
       inkscape:collect="always"
       style="color-interpolation-filters:sRGB"
       id="filter3699-3"
       x="-0.10814979"
       width="1.2162997"
       y="-0.17294557"
       height="1.3458912">
      <feGaussianBlur
         inkscape:collect="always"
         stdDeviation="0.7319577"
         id="feGaussianBlur3701-8" />
    </filter>
    <filter
       inkscape:collect="always"
       style="color-interpolation-filters:sRGB"
       id="filter3703-5"
       x="-0.1457727"
       width="1.2915454"
       y="-0.21447425"
       height="1.4289485">
      <feGaussianBlur
         inkscape:collect="always"
         stdDeviation="0.7319577"
         id="feGaussianBlur3705-6" />
    </filter>
    <filter
       inkscape:collect="always"
       style="color-interpolation-filters:sRGB"
       id="filter3707-1"
       x="-0.11065818"
       width="1.2213165"
       y="-0.11065818"
       height="1.2213165">
      <feGaussianBlur
         inkscape:collect="always"
         stdDeviation="0.7319577"
         id="feGaussianBlur3709-1" />
    </filter>
    <filter
       inkscape:collect="always"
       style="color-interpolation-filters:sRGB"
       id="filter3679-5"
       x="-0.047668133"
       width="1.0953363"
       y="-0.052515741"
       height="1.1050315">
      <feGaussianBlur
         inkscape:collect="always"
         stdDeviation="0.7319577"
         id="feGaussianBlur3681-9" />
    </filter>
  </defs>
  <sodipodi:namedview
     id="base"
     pagecolor="#ffffff"
     bordercolor="#666666"
     borderopacity="1.0"
     inkscape:pageopacity="0.0"
     inkscape:pageshadow="2"
     inkscape:zoom="1.0127945"
     inkscape:cx="527.02583"
     inkscape:cy="323.97854"
     inkscape:document-units="mm"
     inkscape:current-layer="layer1"
     showgrid="false"
     inkscape:snap-midpoints="true"
     inkscape:snap-object-midpoints="true"
     inkscape:window-width="1920"
     inkscape:window-height="1007"
     inkscape:window-x="0"
     inkscape:window-y="36"
     inkscape:window-maximized="1" />
  <metadata
     id="metadata1274">
    <rdf:RDF>
      <cc:Work
         rdf:about="">
        <dc:format>image/svg+xml</dc:format>
        <dc:type
           rdf:resource="http://purl.org/dc/dcmitype/StillImage" />
      </cc:Work>
    </rdf:RDF>
  </metadata>
  <g
     inkscape:label="Layer 1"
     inkscape:groupmode="layer"
     id="layer1"
     transform="translate(-21.160511,-51.433559)">
    <path
       style="fill:none;stroke:#000000;stroke-width:0.26499999;stroke-linecap:butt;stroke-linejoin:miter;stroke-miterlimit:4;stroke-dasharray:none;stroke-opacity:1;marker-end:url(#Arrow2Lend)"
       d="M 28.537201,185.49702 H 189.74405"
       id="path1826"
       inkscape:connector-curvature="0" />
    <path
       style="fill:none;stroke:#000000;stroke-width:0.26458332px;stroke-linecap:butt;stroke-linejoin:miter;stroke-opacity:1;marker-end:url(#Arrow1Lend)"
       d="M 28.537201,185.49702 V 56.607143"
       id="path2110"
       inkscape:connector-curvature="0" />
    <g
       aria-label="vx"
       style="font-style:normal;font-weight:normal;font-size:10.58333302px;line-height:1.25;font-family:sans-serif;letter-spacing:0px;word-spacing:0px;fill:#000000;fill-opacity:1;stroke:none;stroke-width:0.26458332"
       id="text2140">
      <path
         d="m 29.419392,54.788133 h 1.007691 l 1.808675,4.857585 1.808675,-4.857585 h 1.00769 l -2.17041,5.78776 h -1.291911 z"
         style="stroke-width:0.26458332"
         id="path4241" />
      <path
         d="m 39.142829,58.930516 -1.360382,1.830637 1.430921,1.931407 h -0.728896 l -1.095024,-1.477946 -1.095023,1.477946 h -0.728896 l 1.461151,-1.968355 -1.336869,-1.793689 h 0.728896 l 0.997613,1.340228 0.997613,-1.340228 z"
         style="font-size:64.99999762%;baseline-shift:sub"
         id="path4243" />
    </g>
    <g
       aria-label="x"
       style="font-style:normal;font-weight:normal;font-size:10.58333302px;line-height:1.25;font-family:sans-serif;letter-spacing:0px;word-spacing:0px;fill:#000000;fill-opacity:1;stroke:none;stroke-width:0.26458332"
       id="text2146">
      <path
         d="m 192.52868,176.87446 -2.0929,2.81636 2.20142,2.9714 h -1.12138 l -1.68465,-2.27377 -1.68466,2.27377 h -1.12137 l 2.24792,-3.02824 -2.05672,-2.75952 h 1.12138 l 1.53479,2.06189 1.53479,-2.06189 z"
         style="stroke-width:0.26458332"
         id="path4238" />
    </g>
    <path
       style="fill:none;stroke:#000000;stroke-width:0.26458332px;stroke-linecap:butt;stroke-linejoin:miter;stroke-opacity:1"
       d="M 75.406249,155.82589 H 112.25893 V 122.375"
       id="path2163"
       inkscape:connector-curvature="0" />
    <path
       style="fill:#008000;fill-opacity:1;stroke:none;stroke-width:0.10499999;stroke-miterlimit:4;stroke-dasharray:none;stroke-dashoffset:0"
       d="m 120.38542,122.18601 a 7.9374995,7.9374995 0 0 1 -7.9375,7.9375 7.9374995,7.9374995 0 0 1 -7.9375,-7.9375 7.9374995,7.9374995 0 0 1 7.9375,-7.9375 7.9374995,7.9374995 0 0 1 7.9375,7.9375 z"
       id="path1822-9" />
    <g
       aria-label="dx"
       style="font-style:normal;font-weight:normal;font-size:10.58333302px;line-height:1.25;font-family:sans-serif;letter-spacing:0px;word-spacing:0px;fill:#000000;fill-opacity:1;stroke:none;stroke-width:0.26458332"
       id="text2167">
      <path
         d="m 92.307396,149.78269 v -3.13159 h 0.950846 v 8.04086 h -0.950846 v -0.86817 q -0.299724,0.51677 -0.759644,0.76998 -0.454752,0.24805 -1.09554,0.24805 -1.049032,0 -1.71049,-0.83716 -0.656291,-0.83716 -0.656291,-2.20142 0,-1.36425 0.656291,-2.20141 0.661458,-0.83716 1.71049,-0.83716 0.640788,0 1.09554,0.25321 0.45992,0.24805 0.759644,0.76481 z m -3.240112,2.02055 q 0,1.04903 0.428914,1.64848 0.434082,0.59428 1.188558,0.59428 0.754476,0 1.188558,-0.59428 0.434082,-0.59945 0.434082,-1.64848 0,-1.04903 -0.434082,-1.64331 -0.434082,-0.59944 -1.188558,-0.59944 -0.754476,0 -1.188558,0.59944 -0.428914,0.59428 -0.428914,1.64331 z"
         style="stroke-width:0.26458332"
         id="path4232" />
      <path
         d="m 100.02785,148.9042 -2.092891,2.81636 2.201421,2.9714 h -1.121383 l -1.684652,-2.27377 -1.684652,2.27377 h -1.121378 l 2.247924,-3.02824 -2.056721,-2.75952 h 1.121378 l 1.53479,2.06188 1.53479,-2.06188 z"
         style="stroke-width:0.26458332"
         id="path4234" />
    </g>
    <g
       aria-label="dvx"
       style="font-style:normal;font-weight:normal;font-size:10.58333302px;line-height:1.25;font-family:sans-serif;letter-spacing:0px;word-spacing:0px;fill:#000000;fill-opacity:1;stroke:none;stroke-width:0.26458332"
       id="text2171">
      <path
         d="m 118.76573,140.52229 v -3.13159 h 0.95085 v 8.04085 h -0.95085 v -0.86816 q -0.29972,0.51676 -0.75964,0.76997 -0.45475,0.24805 -1.09554,0.24805 -1.04903,0 -1.71049,-0.83716 -0.65629,-0.83716 -0.65629,-2.20141 0,-1.36426 0.65629,-2.20142 0.66146,-0.83716 1.71049,-0.83716 0.64079,0 1.09554,0.25322 0.45992,0.24804 0.75964,0.76481 z m -3.24011,2.02055 q 0,1.04903 0.42891,1.64847 0.43409,0.59428 1.18856,0.59428 0.75448,0 1.18856,-0.59428 0.43408,-0.59944 0.43408,-1.64847 0,-1.04903 -0.43408,-1.64331 -0.43408,-0.59945 -1.18856,-0.59945 -0.75447,0 -1.18856,0.59945 -0.42891,0.59428 -0.42891,1.64331 z"
         style="stroke-width:0.26458332"
         id="path4225" />
      <path
         d="m 120.99299,139.64379 h 1.00769 l 1.80867,4.85758 1.80868,-4.85758 h 1.00769 l -2.17041,5.78776 h -1.29191 z"
         style="stroke-width:0.26458332"
         id="path4227" />
      <path
         d="m 130.71642,143.78617 -1.36038,1.83064 1.43092,1.93141 h -0.7289 l -1.09502,-1.47795 -1.09502,1.47795 h -0.7289 l 1.46115,-1.96836 -1.33687,-1.79369 h 0.7289 l 0.99761,1.34023 0.99762,-1.34023 z"
         style="font-size:64.99999762%;baseline-shift:sub"
         id="path4229" />
    </g>
    <path
       style="fill:none;stroke:#000000;stroke-width:0.26458332px;stroke-linecap:butt;stroke-linejoin:miter;stroke-opacity:1;marker-end:url(#marker2179)"
       d="M 75.406249,155.82589 112.44792,122.18601"
       id="path2175"
       inkscape:connector-curvature="0" />
    <path
       style="fill:#008000;fill-opacity:1;stroke:none;stroke-width:0.10499999;stroke-miterlimit:4;stroke-dasharray:none;stroke-dashoffset:0"
       d="m 83.34375,155.8259 a 7.9374995,7.9374995 0 0 1 -7.9375,7.9375 7.9374995,7.9374995 0 0 1 -7.9375,-7.9375 7.9374995,7.9374995 0 0 1 7.9375,-7.9375 7.9374995,7.9374995 0 0 1 7.9375,7.9375 z"
       id="path1822" />
    <g
       aria-label="e-"
       style="font-style:normal;font-weight:normal;font-size:10.58333302px;line-height:1.25;font-family:sans-serif;letter-spacing:0px;word-spacing:0px;fill:#008000;fill-opacity:1;stroke:none;stroke-width:0.26458332"
       id="text2213">
      <path
         d="m 74.172666,142.48895 v 0.46509 H 69.80084 q 0.06201,0.98185 0.589111,1.49862 0.532267,0.51159 1.477946,0.51159 0.54777,0 1.059367,-0.13435 0.516764,-0.13436 1.023193,-0.40308 v 0.89917 q -0.511597,0.21704 -1.049031,0.33073 -0.537435,0.11369 -1.090373,0.11369 -1.384928,0 -2.196248,-0.80616 -0.806153,-0.80615 -0.806153,-2.18074 0,-1.4211 0.764811,-2.25309 0.769979,-0.83716 2.072225,-0.83716 1.167888,0 1.844849,0.75447 0.682129,0.74931 0.682129,2.04122 z m -0.950847,-0.27905 q -0.01033,-0.78031 -0.439249,-1.2454 -0.423747,-0.46509 -1.126546,-0.46509 -0.795817,0 -1.276408,0.44959 -0.475423,0.44958 -0.54777,1.26607 z"
         style="fill:#008000;stroke-width:0.26458332"
         id="path4219" />
      <path
         d="m 75.071836,139.2274 h 1.810483 v 0.55087 h -1.810483 z"
         style="font-size:64.99999762%;baseline-shift:super;fill:#008000"
         id="path4221" />
    </g>
    <g
       aria-label="tn"
       style="font-style:normal;font-weight:normal;font-size:10.58333302px;line-height:1.25;font-family:sans-serif;letter-spacing:0px;word-spacing:0px;fill:#a05a2c;fill-opacity:1;stroke:none;stroke-width:0.26458332"
       id="text2259">
      <path
         d="m 79.045013,163.89185 v 1.64331 h 1.958537 v 0.73897 h -1.958537 v 3.14193 q 0,0.70797 0.191203,0.90951 0.196371,0.20153 0.79065,0.20153 h 0.976684 v 0.79582 h -0.976684 q -1.100708,0 -1.519288,-0.40824 -0.418579,-0.41341 -0.418579,-1.49862 v -3.14193 h -0.697631 v -0.73897 h 0.697631 v -1.64331 z"
         style="fill:#a05a2c;stroke-width:0.26458332"
         id="path4214" />
      <path
         d="m 85.037412,171.16893 v 2.27066 h -0.61805 v -2.25051 q 0,-0.53408 -0.208256,-0.79943 -0.208256,-0.26536 -0.624768,-0.26536 -0.500486,0 -0.789357,0.3191 -0.288872,0.3191 -0.288872,0.86997 v 2.12623 H 81.8867 v -3.76205 h 0.621409 v 0.58446 q 0.221692,-0.33925 0.52064,-0.5072 0.302308,-0.16795 0.695307,-0.16795 0.648281,0 0.980818,0.40308 0.332538,0.39972 0.332538,1.179 z"
         style="font-size:64.99999762%;baseline-shift:sub;fill:#a05a2c"
         id="path4216" />
    </g>
    <g
       aria-label="tn+1"
       style="font-style:normal;font-weight:normal;font-size:10.58333302px;line-height:1.25;font-family:sans-serif;letter-spacing:0px;word-spacing:0px;fill:#d38d5f;fill-opacity:1;stroke:none;stroke-width:0.26458332"
       id="text2259-6">
      <path
         d="m 123.06779,112.04488 v 1.64331 h 1.95854 v 0.73897 h -1.95854 v 3.14193 q 0,0.70797 0.19121,0.90951 0.19637,0.20154 0.79065,0.20154 h 0.97668 v 0.79581 h -0.97668 q -1.10071,0 -1.51929,-0.40824 -0.41858,-0.41341 -0.41858,-1.49862 v -3.14193 h -0.69763 v -0.73897 h 0.69763 v -1.64331 z"
         style="fill:#d38d5f;stroke-width:0.26458332"
         id="path4205" />
      <path
         d="m 129.06019,119.32196 v 2.27066 h -0.61805 v -2.25051 q 0,-0.53408 -0.20825,-0.79943 -0.20826,-0.26536 -0.62477,-0.26536 -0.50049,0 -0.78936,0.3191 -0.28887,0.3191 -0.28887,0.86997 v 2.12623 h -0.62141 v -3.76205 h 0.62141 v 0.58447 q 0.22169,-0.33926 0.52064,-0.50721 0.30231,-0.16795 0.69531,-0.16795 0.64828,0 0.98082,0.40308 0.33253,0.39972 0.33253,1.179 z"
         style="font-size:64.99999762%;baseline-shift:sub;fill:#d38d5f"
         id="path4207" />
      <path
         d="m 132.81552,117.2797 v 1.87095 h 1.87094 v 0.57102 h -1.87094 v 1.87095 h -0.56431 v -1.87095 h -1.87094 v -0.57102 h 1.87094 v -1.87095 z"
         style="font-size:64.99999762%;baseline-shift:sub;fill:#d38d5f"
         id="path4209" />
      <path
         d="m 136.26854,121.02159 h 1.10846 v -3.82586 l -1.20587,0.24185 v -0.61805 l 1.19915,-0.24185 h 0.67851 v 4.44391 h 1.10846 v 0.57103 h -2.88871 z"
         style="font-size:64.99999762%;baseline-shift:sub;fill:#d38d5f"
         id="path4211" />
    </g>
    <path
       style="fill:none;stroke:#000000;stroke-width:0.26458332px;stroke-linecap:butt;stroke-linejoin:miter;stroke-opacity:1;opacity:0.123;filter:url(#filter3679)"
       d="M 51.249235,110.49562 H 88.101916 V 77.044725"
       id="path2163-1"
       inkscape:connector-curvature="0" />
    <path
       style="fill:#008000;fill-opacity:1;stroke:none;stroke-width:0.10499999;stroke-miterlimit:4;stroke-dasharray:none;stroke-dashoffset:0;opacity:0.123;filter:url(#filter3707)"
       d="m 96.228408,76.855736 a 7.9374995,7.9374995 0 0 1 -7.937499,7.937499 7.9374995,7.9374995 0 0 1 -7.9375,-7.937499 7.9374995,7.9374995 0 0 1 7.9375,-7.9375 7.9374995,7.9374995 0 0 1 7.937499,7.9375 z"
       id="path1822-9-7" />
    <g
       aria-label="dx"
       style="font-style:normal;font-weight:normal;font-size:10.58333302px;line-height:1.25;font-family:sans-serif;letter-spacing:0px;word-spacing:0px;fill:#000000;fill-opacity:1;stroke:none;stroke-width:0.26458332;opacity:0.123;filter:url(#filter3703)"
       id="text2167-7">
      <path
         d="m 68.150383,104.45243 v -3.1316 h 0.950846 v 8.04086 h -0.950846 v -0.86817 q -0.299723,0.51677 -0.759644,0.76998 -0.454752,0.24805 -1.09554,0.24805 -1.049032,0 -1.71049,-0.83716 -0.656291,-0.83716 -0.656291,-2.20142 0,-1.36425 0.656291,-2.20141 0.661458,-0.83716 1.71049,-0.83716 0.640788,0 1.09554,0.25321 0.459921,0.24805 0.759644,0.76482 z m -3.240112,2.02054 q 0,1.04904 0.428914,1.64848 0.434082,0.59428 1.188558,0.59428 0.754476,0 1.188558,-0.59428 0.434082,-0.59944 0.434082,-1.64848 0,-1.04903 -0.434082,-1.64331 -0.434082,-0.59944 -1.188558,-0.59944 -0.754476,0 -1.188558,0.59944 -0.428914,0.59428 -0.428914,1.64331 z"
         style="stroke-width:0.26458332"
         id="path3455" />
      <path
         d="m 75.870842,103.57393 -2.092896,2.81636 2.201416,2.9714 h -1.121378 l -1.684652,-2.27377 -1.684652,2.27377 h -1.121378 l 2.247925,-3.02824 -2.056722,-2.75952 h 1.121378 l 1.53479,2.06189 1.53479,-2.06189 z"
         style="stroke-width:0.26458332"
         id="path3457" />
    </g>
    <g
       aria-label="dvx"
       style="font-style:normal;font-weight:normal;font-size:10.58333302px;line-height:1.25;font-family:sans-serif;letter-spacing:0px;word-spacing:0px;fill:#000000;fill-opacity:1;stroke:none;stroke-width:0.26458332;opacity:0.123;filter:url(#filter3699)"
       id="text2171-1">
      <path
         d="m 94.608726,95.192019 v -3.131591 h 0.950847 v 8.040852 h -0.950847 v -0.868164 q -0.299723,0.516764 -0.759643,0.769974 -0.454753,0.24805 -1.095541,0.24805 -1.049031,0 -1.710489,-0.837156 -0.656291,-0.837158 -0.656291,-2.201416 0,-1.364258 0.656291,-2.201416 0.661458,-0.837158 1.710489,-0.837158 0.640788,0 1.095541,0.253214 0.45992,0.248047 0.759643,0.764811 z m -3.240112,2.020549 q 0,1.049031 0.428915,1.648478 0.434082,0.594279 1.188557,0.594279 0.754476,0 1.188558,-0.594279 0.434082,-0.599447 0.434082,-1.648478 0,-1.049032 -0.434082,-1.643311 -0.434082,-0.599446 -1.188558,-0.599446 -0.754475,0 -1.188557,0.599446 -0.428915,0.594279 -0.428915,1.643311 z"
         style="stroke-width:0.26458332"
         id="path3460" />
      <path
         d="m 96.835981,94.31352 h 1.00769 l 1.808675,4.857584 1.808674,-4.857584 h 1.00769 l -2.17041,5.78776 h -1.291909 z"
         style="stroke-width:0.26458332"
         id="path3462" />
      <path
         d="m 106.55942,98.455903 -1.36038,1.830637 1.43092,1.93141 h -0.7289 l -1.09502,-1.47795 -1.09503,1.47795 h -0.72889 l 1.46115,-1.96836 -1.33687,-1.793687 h 0.72889 l 0.99762,1.340228 0.99761,-1.340228 z"
         style="font-size:6.87916613px;baseline-shift:sub;stroke-width:0.26458332"
         id="path3464" />
    </g>
    <path
       style="fill:none;stroke:#000000;stroke-width:0.26458332px;stroke-linecap:butt;stroke-linejoin:miter;stroke-opacity:1;marker-end:url(#marker2179-0);opacity:0.123;filter:url(#filter3675)"
       d="M 51.249235,110.49562 88.290905,76.855735"
       id="path2175-7"
       inkscape:connector-curvature="0" />
    <path
       style="fill:#008000;fill-opacity:1;stroke:none;stroke-width:0.10499999;stroke-miterlimit:4;stroke-dasharray:none;stroke-dashoffset:0;opacity:0.123;filter:url(#filter3695)"
       d="m 59.186737,110.49563 a 7.9374995,7.9374995 0 0 1 -7.9375,7.9375 7.9374995,7.9374995 0 0 1 -7.937499,-7.9375 7.9374995,7.9374995 0 0 1 7.937499,-7.9375 7.9374995,7.9374995 0 0 1 7.9375,7.9375 z"
       id="path1822-7" />
    <g
       aria-label="e-"
       style="font-style:normal;font-weight:normal;font-size:10.58333302px;line-height:1.25;font-family:sans-serif;letter-spacing:0px;word-spacing:0px;fill:#008000;fill-opacity:1;stroke:none;stroke-width:0.26458332;opacity:0.123;filter:url(#filter3691)"
       id="text2213-6">
      <path
         d="m 50.015653,97.158692 v 0.465087 h -4.371826 q 0.06201,0.981853 0.589111,1.498617 0.532267,0.511597 1.477946,0.511597 0.54777,0 1.059367,-0.134359 0.516764,-0.134359 1.023193,-0.403076 v 0.89917 q -0.511597,0.217042 -1.049031,0.330732 -0.537435,0.11368 -1.090373,0.11368 -1.384928,0 -2.196248,-0.806147 -0.806153,-0.806153 -0.806153,-2.180746 0,-1.421102 0.764811,-2.253092 0.769979,-0.837158 2.072225,-0.837158 1.167888,0 1.844849,0.754475 0.682129,0.749309 0.682129,2.04122 z m -0.950847,-0.279053 q -0.01033,-0.780314 -0.439249,-1.245402 -0.423747,-0.465088 -1.126546,-0.465088 -0.795817,0 -1.276408,0.449585 -0.475423,0.449585 -0.54777,1.266072 z"
         style="fill:#008000;stroke-width:0.26458332"
         id="path3468" />
      <path
         d="m 50.914823,93.897134 h 1.810484 v 0.55087 h -1.810484 z"
         style="font-size:6.87916613px;baseline-shift:super;fill:#008000;stroke-width:0.26458332"
         id="path3470" />
    </g>
    <g
       aria-label="tn"
       style="font-style:normal;font-weight:normal;font-size:10.58333302px;line-height:1.25;font-family:sans-serif;letter-spacing:0px;word-spacing:0px;fill:#000000;fill-opacity:1;stroke:none;stroke-width:0.26458332;opacity:0.123;filter:url(#filter3687)"
       id="text2259-65">
      <path
         d="m 54.888,118.56158 v 1.64331 h 1.958537 v 0.73898 H 54.888 v 3.14192 q 0,0.70797 0.191203,0.90951 0.196371,0.20154 0.79065,0.20154 h 0.976684 v 0.79581 h -0.976684 q -1.100708,0 -1.519287,-0.40824 -0.41858,-0.41341 -0.41858,-1.49862 v -3.14192 h -0.697631 v -0.73898 h 0.697631 v -1.64331 z"
         style="fill:#c87137;stroke-width:0.26458332"
         id="path3473" />
      <path
         d="m 60.880399,125.83866 v 2.27066 h -0.61805 v -2.25051 q 0,-0.53407 -0.208256,-0.79943 -0.208256,-0.26536 -0.624768,-0.26536 -0.500486,0 -0.789357,0.3191 -0.288871,0.3191 -0.288871,0.86997 v 2.12623 h -0.62141 v -3.76204 h 0.62141 v 0.58446 q 0.221691,-0.33926 0.52064,-0.50721 0.302307,-0.16795 0.695306,-0.16795 0.648281,0 0.980818,0.40308 0.332538,0.39972 0.332538,1.179 z"
         style="font-size:6.87916613px;baseline-shift:sub;stroke-width:0.26458332"
         id="path3475" />
    </g>
    <g
       aria-label="tn+1"
       style="font-style:normal;font-weight:normal;font-size:10.58333302px;line-height:1.25;font-family:sans-serif;letter-spacing:0px;word-spacing:0px;fill:#000000;fill-opacity:1;stroke:none;stroke-width:0.26458332;opacity:0.123;filter:url(#filter3683)"
       id="text2259-6-9">
      <path
         d="m 98.910789,66.714613 v 1.64331 h 1.958541 v 0.738973 h -1.958541 v 3.141927 q 0,0.707967 0.191203,0.909505 0.196371,0.201538 0.79065,0.201538 h 0.976688 v 0.795817 h -0.976688 q -1.100708,0 -1.519287,-0.408244 -0.41858,-0.413411 -0.41858,-1.498616 v -3.141927 h -0.697631 v -0.738973 h 0.697631 v -1.64331 z"
         style="fill:#c87137;stroke-width:0.26458332"
         id="path3478" />
      <path
         d="m 104.90319,73.991688 v 2.270662 h -0.61805 v -2.250509 q 0,-0.534075 -0.20826,-0.799434 -0.20825,-0.265358 -0.62477,-0.265358 -0.50048,0 -0.78935,0.319102 -0.28887,0.319101 -0.28887,0.869972 v 2.126227 h -0.62141 v -3.762044 h 0.62141 v 0.58446 q 0.22169,-0.339255 0.52064,-0.507204 0.3023,-0.167948 0.6953,-0.167948 0.64828,0 0.98082,0.403076 0.33254,0.399717 0.33254,1.178998 z"
         style="font-size:6.87916613px;baseline-shift:sub;stroke-width:0.26458332"
         id="path3480" />
      <path
         d="m 108.65851,71.949435 v 1.870945 h 1.87095 v 0.571025 h -1.87095 v 1.870945 h -0.5643 v -1.870945 h -1.87095 V 73.82038 h 1.87095 v -1.870945 z"
         style="font-size:6.87916613px;baseline-shift:sub;stroke-width:0.26458332"
         id="path3482" />
      <path
         d="m 112.11153,75.691325 h 1.10846 v -3.825864 l -1.20587,0.241846 v -0.61805 l 1.19916,-0.241846 h 0.67851 v 4.443914 h 1.10846 v 0.571025 h -2.88872 z"
         style="font-size:6.87916613px;baseline-shift:sub;stroke-width:0.26458332"
         id="path3484" />
    </g>
    <path
       style="opacity:0.083;fill:none;stroke:#000000;stroke-width:0.26458332px;stroke-linecap:butt;stroke-linejoin:miter;stroke-opacity:1;filter:url(#filter3679-5)"
       d="m 137.19748,98.217293 h 36.85269 v -33.45089"
       id="path2163-1-8"
       inkscape:connector-curvature="0" />
    <path
       inkscape:connector-curvature="0"
       style="opacity:0.083;fill:#008000;fill-opacity:1;stroke:none;stroke-width:0.10499999;stroke-miterlimit:4;stroke-dasharray:none;stroke-dashoffset:0;filter:url(#filter3707-1)"
       d="m 182.17666,64.577413 a 7.9374996,7.9374996 0 0 1 -7.9375,7.9375 7.9374996,7.9374996 0 0 1 -7.9375,-7.9375 7.9374996,7.9374996 0 0 1 7.9375,-7.937503 7.9374996,7.9374996 0 0 1 7.9375,7.937503 z"
       id="path1822-9-7-4" />
    <g
       transform="translate(85.948247,-12.278327)"
       aria-label="dx"
       style="font-style:normal;font-weight:normal;font-size:10.58333302px;line-height:1.25;font-family:sans-serif;letter-spacing:0px;word-spacing:0px;opacity:0.083;fill:#000000;fill-opacity:1;stroke:none;stroke-width:0.26458332;filter:url(#filter3703-5)"
       id="text2167-7-8">
      <path
         inkscape:connector-curvature="0"
         d="m 68.150383,104.45243 v -3.1316 h 0.950846 v 8.04086 h -0.950846 v -0.86817 q -0.299723,0.51677 -0.759644,0.76998 -0.454752,0.24805 -1.09554,0.24805 -1.049032,0 -1.71049,-0.83716 -0.656291,-0.83716 -0.656291,-2.20142 0,-1.36425 0.656291,-2.20141 0.661458,-0.83716 1.71049,-0.83716 0.640788,0 1.09554,0.25321 0.459921,0.24805 0.759644,0.76482 z m -3.240112,2.02054 q 0,1.04904 0.428914,1.64848 0.434082,0.59428 1.188558,0.59428 0.754476,0 1.188558,-0.59428 0.434082,-0.59944 0.434082,-1.64848 0,-1.04903 -0.434082,-1.64331 -0.434082,-0.59944 -1.188558,-0.59944 -0.754476,0 -1.188558,0.59944 -0.428914,0.59428 -0.428914,1.64331 z"
         style="stroke-width:0.26458332"
         id="path3455-1" />
      <path
         inkscape:connector-curvature="0"
         d="m 75.870842,103.57393 -2.092896,2.81636 2.201416,2.9714 h -1.121378 l -1.684652,-2.27377 -1.684652,2.27377 h -1.121378 l 2.247925,-3.02824 -2.056722,-2.75952 h 1.121378 l 1.53479,2.06189 1.53479,-2.06189 z"
         style="stroke-width:0.26458332"
         id="path3457-0" />
    </g>
    <g
       transform="translate(85.948247,-12.278327)"
       aria-label="dvx"
       style="font-style:normal;font-weight:normal;font-size:10.58333302px;line-height:1.25;font-family:sans-serif;letter-spacing:0px;word-spacing:0px;opacity:0.083;fill:#000000;fill-opacity:1;stroke:none;stroke-width:0.26458332;filter:url(#filter3699-3)"
       id="text2171-1-3">
      <path
         inkscape:connector-curvature="0"
         d="m 94.608726,95.192019 v -3.131591 h 0.950847 v 8.040852 h -0.950847 v -0.868164 q -0.299723,0.516764 -0.759643,0.769974 -0.454753,0.24805 -1.095541,0.24805 -1.049031,0 -1.710489,-0.837156 -0.656291,-0.837158 -0.656291,-2.201416 0,-1.364258 0.656291,-2.201416 0.661458,-0.837158 1.710489,-0.837158 0.640788,0 1.095541,0.253214 0.45992,0.248047 0.759643,0.764811 z m -3.240112,2.020549 q 0,1.049031 0.428915,1.648478 0.434082,0.594279 1.188557,0.594279 0.754476,0 1.188558,-0.594279 0.434082,-0.599447 0.434082,-1.648478 0,-1.049032 -0.434082,-1.643311 -0.434082,-0.599446 -1.188558,-0.599446 -0.754475,0 -1.188557,0.599446 -0.428915,0.594279 -0.428915,1.643311 z"
         style="stroke-width:0.26458332"
         id="path3460-0" />
      <path
         inkscape:connector-curvature="0"
         d="m 96.835981,94.31352 h 1.00769 l 1.808675,4.857584 1.808674,-4.857584 h 1.00769 l -2.17041,5.78776 h -1.291909 z"
         style="stroke-width:0.26458332"
         id="path3462-4" />
      <path
         inkscape:connector-curvature="0"
         d="m 106.55942,98.455903 -1.36038,1.830637 1.43092,1.93141 h -0.7289 l -1.09502,-1.47795 -1.09503,1.47795 h -0.72889 l 1.46115,-1.96836 -1.33687,-1.793687 h 0.72889 l 0.99762,1.340228 0.99761,-1.340228 z"
         style="font-size:6.87916613px;baseline-shift:sub;stroke-width:0.26458332"
         id="path3464-4" />
    </g>
    <path
       style="opacity:0.083;fill:none;stroke:#000000;stroke-width:0.26458332px;stroke-linecap:butt;stroke-linejoin:miter;stroke-opacity:1;marker-end:url(#marker2179-0-5);filter:url(#filter3675-9)"
       d="m 137.19748,98.217293 37.04168,-33.63988"
       id="path2175-7-4"
       inkscape:connector-curvature="0" />
    <path
       inkscape:connector-curvature="0"
       style="opacity:0.083;fill:#008000;fill-opacity:1;stroke:none;stroke-width:0.10499999;stroke-miterlimit:4;stroke-dasharray:none;stroke-dashoffset:0;filter:url(#filter3695-8)"
       d="m 145.13498,98.217303 a 7.9374996,7.9374996 0 0 1 -7.9375,7.937517 7.9374996,7.9374996 0 0 1 -7.9375,-7.937517 7.9374996,7.9374996 0 0 1 7.9375,-7.9375 7.9374996,7.9374996 0 0 1 7.9375,7.9375 z"
       id="path1822-7-4" />
    <g
       transform="translate(85.948247,-12.278327)"
       aria-label="e-"
       style="font-style:normal;font-weight:normal;font-size:10.58333302px;line-height:1.25;font-family:sans-serif;letter-spacing:0px;word-spacing:0px;opacity:0.083;fill:#008000;fill-opacity:1;stroke:none;stroke-width:0.26458332;filter:url(#filter3691-9)"
       id="text2213-6-7">
      <path
         inkscape:connector-curvature="0"
         d="m 50.015653,97.158692 v 0.465087 h -4.371826 q 0.06201,0.981853 0.589111,1.498617 0.532267,0.511597 1.477946,0.511597 0.54777,0 1.059367,-0.134359 0.516764,-0.134359 1.023193,-0.403076 v 0.89917 q -0.511597,0.217042 -1.049031,0.330732 -0.537435,0.11368 -1.090373,0.11368 -1.384928,0 -2.196248,-0.806147 -0.806153,-0.806153 -0.806153,-2.180746 0,-1.421102 0.764811,-2.253092 0.769979,-0.837158 2.072225,-0.837158 1.167888,0 1.844849,0.754475 0.682129,0.749309 0.682129,2.04122 z m -0.950847,-0.279053 q -0.01033,-0.780314 -0.439249,-1.245402 -0.423747,-0.465088 -1.126546,-0.465088 -0.795817,0 -1.276408,0.449585 -0.475423,0.449585 -0.54777,1.266072 z"
         style="fill:#008000;stroke-width:0.26458332"
         id="path3468-6" />
      <path
         inkscape:connector-curvature="0"
         d="m 50.914823,93.897134 h 1.810484 v 0.55087 h -1.810484 z"
         style="font-size:6.87916613px;baseline-shift:super;fill:#008000;stroke-width:0.26458332"
         id="path3470-3" />
    </g>
    <g
       transform="translate(85.948247,-12.278327)"
       aria-label="tn"
       style="font-style:normal;font-weight:normal;font-size:10.58333302px;line-height:1.25;font-family:sans-serif;letter-spacing:0px;word-spacing:0px;opacity:0.083;fill:#000000;fill-opacity:1;stroke:none;stroke-width:0.26458332;filter:url(#filter3687-9)"
       id="text2259-65-1">
      <path
         inkscape:connector-curvature="0"
         d="m 54.888,118.56158 v 1.64331 h 1.958537 v 0.73898 H 54.888 v 3.14192 q 0,0.70797 0.191203,0.90951 0.196371,0.20154 0.79065,0.20154 h 0.976684 v 0.79581 h -0.976684 q -1.100708,0 -1.519287,-0.40824 -0.41858,-0.41341 -0.41858,-1.49862 v -3.14192 h -0.697631 v -0.73898 h 0.697631 v -1.64331 z"
         style="fill:#c87137;stroke-width:0.26458332"
         id="path3473-7" />
      <path
         inkscape:connector-curvature="0"
         d="m 60.880399,125.83866 v 2.27066 h -0.61805 v -2.25051 q 0,-0.53407 -0.208256,-0.79943 -0.208256,-0.26536 -0.624768,-0.26536 -0.500486,0 -0.789357,0.3191 -0.288871,0.3191 -0.288871,0.86997 v 2.12623 h -0.62141 v -3.76204 h 0.62141 v 0.58446 q 0.221691,-0.33926 0.52064,-0.50721 0.302307,-0.16795 0.695306,-0.16795 0.648281,0 0.980818,0.40308 0.332538,0.39972 0.332538,1.179 z"
         style="font-size:6.87916613px;baseline-shift:sub;stroke-width:0.26458332"
         id="path3475-5" />
    </g>
    <g
       transform="translate(85.948247,-12.278327)"
       aria-label="tn+1"
       style="font-style:normal;font-weight:normal;font-size:10.58333302px;line-height:1.25;font-family:sans-serif;letter-spacing:0px;word-spacing:0px;opacity:0.083;fill:#000000;fill-opacity:1;stroke:none;stroke-width:0.26458332;filter:url(#filter3683-1)"
       id="text2259-6-9-9">
      <path
         inkscape:connector-curvature="0"
         d="m 98.910789,66.714613 v 1.64331 h 1.958541 v 0.738973 h -1.958541 v 3.141927 q 0,0.707967 0.191203,0.909505 0.196371,0.201538 0.79065,0.201538 h 0.976688 v 0.795817 h -0.976688 q -1.100708,0 -1.519287,-0.408244 -0.41858,-0.413411 -0.41858,-1.498616 v -3.141927 h -0.697631 v -0.738973 h 0.697631 v -1.64331 z"
         style="fill:#c87137;stroke-width:0.26458332"
         id="path3478-6" />
      <path
         inkscape:connector-curvature="0"
         d="m 104.90319,73.991688 v 2.270662 h -0.61805 v -2.250509 q 0,-0.534075 -0.20826,-0.799434 -0.20825,-0.265358 -0.62477,-0.265358 -0.50048,0 -0.78935,0.319102 -0.28887,0.319101 -0.28887,0.869972 v 2.126227 h -0.62141 v -3.762044 h 0.62141 v 0.58446 q 0.22169,-0.339255 0.52064,-0.507204 0.3023,-0.167948 0.6953,-0.167948 0.64828,0 0.98082,0.403076 0.33254,0.399717 0.33254,1.178998 z"
         style="font-size:6.87916613px;baseline-shift:sub;stroke-width:0.26458332"
         id="path3480-2" />
      <path
         inkscape:connector-curvature="0"
         d="m 108.65851,71.949435 v 1.870945 h 1.87095 v 0.571025 h -1.87095 v 1.870945 h -0.5643 v -1.870945 h -1.87095 V 73.82038 h 1.87095 v -1.870945 z"
         style="font-size:6.87916613px;baseline-shift:sub;stroke-width:0.26458332"
         id="path3482-1" />
      <path
         inkscape:connector-curvature="0"
         d="m 112.11153,75.691325 h 1.10846 v -3.825864 l -1.20587,0.241846 v -0.61805 l 1.19916,-0.241846 h 0.67851 v 4.443914 h 1.10846 v 0.571025 h -2.88872 z"
         style="font-size:6.87916613px;baseline-shift:sub;stroke-width:0.26458332"
         id="path3484-7" />
    </g>
  </g>
</svg>
